<svg xmlns="http://www.w3.org/2000/svg" width="1119.8885498046875" height="1547.4422607421875" viewBox="-595.3565673828125 -733.0350341796875 1119.8885498046875 1547.4422607421875"><title>Neo4j Graph Visualization</title><desc>Created using Neo4j (http://www.neo4j.com/)</desc><g class="layer relationships"><g class="relationship" transform="translate(151.57977139525048 161.19665631745684) rotate(406.3428095605829)"><path class="outline" fill="#A5ABB6" stroke="none" d="M 25 0.5 L 77.31047308534735 0.5 L 77.31047308534735 -0.5 L 25 -0.5 Z M 90.86906683534735 0.5 L 143.1795399206947 0.5 L 143.1795399206947 3.5 L 150.1795399206947 0 L 143.1795399206947 -3.5 L 143.1795399206947 -0.5 L 90.86906683534735 -0.5 Z"/><text text-anchor="middle" pointer-events="none" font-size="8px" fill="#000000" x="84.08976996034735" y="3" font-family="sans-serif">IS</text></g><g class="relationship" transform="translate(151.57977139525048 161.19665631745684) rotate(383.27220703668166)"><path class="outline" fill="#A5ABB6" stroke="none" d="M 25 0.5 L 50.661501571497695 0.5 L 50.661501571497695 -0.5 L 25 -0.5 Z M 115.7865015714977 0.5 L 141.4480031429954 0.5 L 141.4480031429954 3.5 L 148.4480031429954 0 L 141.4480031429954 -3.5 L 141.4480031429954 -0.5 L 115.7865015714977 -0.5 Z"/><text text-anchor="middle" pointer-events="none" font-size="8px" fill="#000000" x="83.2240015714977" y="3" font-family="sans-serif">HAS_POSITION</text></g><g class="relationship" transform="translate(6.909444917486162 432.2888285422126) rotate(277.47136263257363)"><path class="outline" fill="#A5ABB6" stroke="none" d="M 25 0.5 L 123.11575372144131 0.5 L 123.11575372144131 -0.5 L 25 -0.5 Z M 192.6860662214413 0.5 L 290.8018199428826 0.5 L 290.8018199428826 3.5 L 297.8018199428826 0 L 290.8018199428826 -3.5 L 290.8018199428826 -0.5 L 192.6860662214413 -0.5 Z"/><text text-anchor="middle" pointer-events="none" font-size="8px" fill="#000000" x="157.9009099714413" y="3" font-family="sans-serif">ALLIANCE_WITH</text></g><g class="relationship" transform="translate(-225.88703894944882 -4.396181397020139) rotate(382.9983357540442)"><path class="outline" fill="#A5ABB6" stroke="none" d="M 25 0.5 L 110.9629552696396 0.5 L 110.9629552696396 -0.5 L 25 -0.5 Z M 180.5332677696396 0.5 L 266.4962230392792 0.5 L 266.4962230392792 3.5 L 273.4962230392792 0 L 266.4962230392792 -3.5 L 266.4962230392792 -0.5 L 180.5332677696396 -0.5 Z"/><text text-anchor="middle" pointer-events="none" font-size="8px" fill="#000000" x="145.7481115196396" y="3" font-family="sans-serif">ALLIANCE_WITH</text></g><g class="relationship" transform="translate(-141.54579662927316 187.86856344452286) rotate(338.3363964255925)"><path class="outline" fill="#A5ABB6" stroke="none" d="M 25 0.5 L 62.240146879465115 0.5 L 62.240146879465115 -0.5 L 25 -0.5 Z M 135.6620218794651 0.5 L 172.90216875893023 0.5 L 172.90216875893023 3.5 L 179.90216875893023 0 L 172.90216875893023 -3.5 L 172.90216875893023 -0.5 L 135.6620218794651 -0.5 Z"/><text text-anchor="middle" pointer-events="none" font-size="8px" fill="#000000" x="98.95108437946512" y="3" font-family="sans-serif">FAMILY_MEMBER</text></g><g class="relationship" transform="translate(66.50684625041501 22.848830336164262) rotate(461.1542229020347)"><path class="outline" fill="#A5ABB6" stroke="none" d="M 25 0.5 L 25.71583710548925 0.5 L 25.71583710548925 -0.5 L 25 -0.5 Z M 58.38380585548925 0.5 L 59.0996429609785 0.5 L 59.0996429609785 3.5 L 66.0996429609785 0 L 59.0996429609785 -3.5 L 59.0996429609785 -0.5 L 58.38380585548925 -0.5 Z"/><text text-anchor="middle" pointer-events="none" font-size="8px" fill="#000000" x="42.04982148048925" y="3" transform="rotate(180 42.04982148048925 0)" font-family="sans-serif">FAMI…</text></g><g class="relationship" transform="translate(3.1452597809522174 276.0901285614541) rotate(285.5958064177694)"><path class="outline" fill="#A5ABB6" stroke="none" d="M 25 0.5 L 44.85215699468283 0.5 L 44.85215699468283 -0.5 L 25 -0.5 Z M 118.27403199468283 0.5 L 138.12618898936566 0.5 L 138.12618898936566 3.5 L 145.12618898936566 0 L 138.12618898936566 -3.5 L 138.12618898936566 -0.5 L 118.27403199468283 -0.5 Z"/><text text-anchor="middle" pointer-events="none" font-size="8px" fill="#000000" x="81.56309449468283" y="3" font-family="sans-serif">FAMILY_MEMBER</text></g><g class="relationship" transform="translate(33.294698147425 190.36644546308372) rotate(281.28250622173954)"><path class="outline" fill="#A5ABB6" stroke="none" d="M 25 0.5 L 26.895979093317628 0.5 L 26.895979093317628 -0.5 L 25 -0.5 Z M 45.78269784331763 0.5 L 47.678676936635256 0.5 L 47.678676936635256 3.5 L 54.678676936635256 0 L 47.678676936635256 -3.5 L 47.678676936635256 -0.5 L 45.78269784331763 -0.5 Z"/><text text-anchor="middle" pointer-events="none" font-size="8px" fill="#000000" x="36.33933846831763" y="3" font-family="sans-serif">F…</text></g><g class="relationship" transform="translate(-97.38680335522385 124.36119040799026) rotate(355.2579922305174)"><path class="outline" fill="#A5ABB6" stroke="none" d="M 25 0.5 L 33.1754479282866 0.5 L 33.1754479282866 -0.5 L 25 -0.5 Z M 106.5973229282866 0.5 L 114.7727708565732 0.5 L 114.7727708565732 3.5 L 121.7727708565732 0 L 114.7727708565732 -3.5 L 114.7727708565732 -0.5 L 106.5973229282866 -0.5 Z"/><text text-anchor="middle" pointer-events="none" font-size="8px" fill="#000000" x="69.8863854282866" y="3" font-family="sans-serif">FAMILY_MEMBER</text></g><g class="relationship" transform="translate(12.440295359754675 -76.28679709514171) rotate(439.05864727564426)"><path class="outline" fill="#A5ABB6" stroke="none" d="M 25 0.5 L 55.79139526337515 0.5 L 55.79139526337515 -0.5 L 25 -0.5 Z M 129.21327026337514 0.5 L 160.0046655267503 0.5 L 160.0046655267503 3.5 L 167.0046655267503 0 L 160.0046655267503 -3.5 L 160.0046655267503 -0.5 L 129.21327026337514 -0.5 Z"/><text text-anchor="middle" pointer-events="none" font-size="8px" fill="#000000" x="92.50233276337515" y="3" font-family="sans-serif">FAMILY_MEMBER</text></g><g class="relationship" transform="translate(105.90996414889439 265.66055947073795) rotate(249.6114208392347)"><path class="outline" fill="#A5ABB6" stroke="none" d="M 25 0.5 L 41.63294055088424 0.5 L 41.63294055088424 -0.5 L 25 -0.5 Z M 115.05481555088424 0.5 L 131.68775610176849 0.5 L 131.68775610176849 3.5 L 138.68775610176849 0 L 131.68775610176849 -3.5 L 131.68775610176849 -0.5 L 115.05481555088424 -0.5 Z"/><text text-anchor="middle" pointer-events="none" font-size="8px" fill="#000000" x="78.34387805088424" y="3" transform="rotate(180 78.34387805088424 0)" font-family="sans-serif">FAMILY_MEMBER</text></g><g class="relationship" transform="translate(125.01501738573305 10.24294466529815) rotate(486.7413028164069)"><path class="outline" fill="#A5ABB6" stroke="none" d="M 25 0.5 L 27.64712971103601 0.5 L 27.64712971103601 -0.5 L 25 -0.5 Z M 92.619785961036 0.5 L 95.26691567207202 0.5 L 95.26691567207202 3.5 L 102.26691567207202 0 L 95.26691567207202 -3.5 L 95.26691567207202 -0.5 L 92.619785961036 -0.5 Z"/><text text-anchor="middle" pointer-events="none" font-size="8px" fill="#000000" x="60.13345783603601" y="3" transform="rotate(180 60.13345783603601 0)" font-family="sans-serif">FAMILY_MEM…</text></g><g class="relationship" transform="translate(-58.194100984842436 -14.139048930367071) rotate(409.7234915869813)"><path class="outline" fill="#A5ABB6" stroke="none" d="M 25 0.5 L 42.60536320308394 0.5 L 42.60536320308394 -0.5 L 25 -0.5 Z M 116.02723820308394 0.5 L 133.63260140616788 0.5 L 133.63260140616788 3.5 L 140.63260140616788 0 L 133.63260140616788 -3.5 L 133.63260140616788 -0.5 L 116.02723820308394 -0.5 Z"/><text text-anchor="middle" pointer-events="none" font-size="8px" fill="#000000" x="79.31630070308394" y="3" font-family="sans-serif">FAMILY_MEMBER</text></g><g class="relationship" transform="translate(228.3929908341453 -8.59139708337935) rotate(506.05743387839505)"><path class="outline" fill="#A5ABB6" stroke="none" d="M 25 0.5 L 67.97970769169514 0.5 L 67.97970769169514 -0.5 L 25 -0.5 Z M 141.40158269169513 0.5 L 184.38129038339028 0.5 L 184.38129038339028 3.5 L 191.38129038339028 0 L 184.38129038339028 -3.5 L 184.38129038339028 -0.5 L 141.40158269169513 -0.5 Z"/><text text-anchor="middle" pointer-events="none" font-size="8px" fill="#000000" x="104.69064519169514" y="3" transform="rotate(180 104.69064519169514 0)" font-family="sans-serif">FAMILY_MEMBER</text></g><g class="relationship" transform="translate(183.62672205967812 284.71001223902823) rotate(232.003068515447)"><path class="outline" fill="#A5ABB6" stroke="none" d="M 25 0.5 L 69.22614273832879 0.5 L 69.22614273832879 -0.5 L 25 -0.5 Z M 142.6480177383288 0.5 L 186.87416047665758 0.5 L 186.87416047665758 3.5 L 193.87416047665758 0 L 186.87416047665758 -3.5 L 186.87416047665758 -0.5 L 142.6480177383288 -0.5 Z"/><text text-anchor="middle" pointer-events="none" font-size="8px" fill="#000000" x="105.93708023832879" y="3" transform="rotate(180 105.93708023832879 0)" font-family="sans-serif">FAMILY_MEMBER</text></g><g class="relationship" transform="translate(271.3162293177651 81.4256064305245) rotate(532.1159434749375)"><path class="outline" fill="#A5ABB6" stroke="none" d="M 25 0.5 L 72.06667673597971 0.5 L 72.06667673597971 -0.5 L 25 -0.5 Z M 145.4885517359797 0.5 L 192.55522847195942 0.5 L 192.55522847195942 3.5 L 199.55522847195942 0 L 192.55522847195942 -3.5 L 192.55522847195942 -0.5 L 145.4885517359797 -0.5 Z"/><text text-anchor="middle" pointer-events="none" font-size="8px" fill="#000000" x="108.77761423597971" y="3" transform="rotate(180 108.77761423597971 0)" font-family="sans-serif">FAMILY_MEMBER</text></g><g class="relationship" transform="translate(184.17750182425723 49.38286957214556) rotate(515.0848867222422)"><path class="outline" fill="#A5ABB6" stroke="none" d="M 25 0.5 L 34.37778212894233 0.5 L 34.37778212894233 -0.5 L 25 -0.5 Z M 107.79965712894233 0.5 L 117.17743925788466 0.5 L 117.17743925788466 3.5 L 124.17743925788466 0 L 117.17743925788466 -3.5 L 117.17743925788466 -0.5 L 107.79965712894233 -0.5 Z"/><text text-anchor="middle" pointer-events="none" font-size="8px" fill="#000000" x="71.08871962894233" y="3" transform="rotate(180 71.08871962894233 0)" font-family="sans-serif">FAMILY_MEMBER</text></g><g class="relationship" transform="translate(180.79353248507834 -87.22239204638774) rotate(483.47939805807306)"><path class="outline" fill="#A5ABB6" stroke="none" d="M 25 0.5 L 79.35132532497886 0.5 L 79.35132532497886 -0.5 L 25 -0.5 Z M 152.77320032497886 0.5 L 207.12452564995772 0.5 L 207.12452564995772 3.5 L 214.12452564995772 0 L 207.12452564995772 -3.5 L 207.12452564995772 -0.5 L 152.77320032497886 -0.5 Z"/><text text-anchor="middle" pointer-events="none" font-size="8px" fill="#000000" x="116.06226282497886" y="3" transform="rotate(180 116.06226282497886 0)" font-family="sans-serif">FAMILY_MEMBER</text></g><g class="relationship" transform="translate(280.66123325512615 161.00525301155446) rotate(191.88448052695412)"><path class="outline" fill="#A5ABB6" stroke="none" d="M 25 0.5 L 78.21640723925701 0.5 L 78.21640723925701 -0.5 L 25 -0.5 Z M 151.63828223925702 0.5 L 204.85468947851402 0.5 L 204.85468947851402 3.5 L 211.85468947851402 0 L 204.85468947851402 -3.5 L 204.85468947851402 -0.5 L 151.63828223925702 -0.5 Z"/><text text-anchor="middle" pointer-events="none" font-size="8px" fill="#000000" x="114.92734473925701" y="3" transform="rotate(180 114.92734473925701 0)" font-family="sans-serif">FAMILY_MEMBER</text></g><g class="relationship" transform="translate(216.53748824209094 170.0303739757822) rotate(199.02287991486634)"><path class="outline" fill="#A5ABB6" stroke="none" d="M 25 0.5 L 48.45838684764264 0.5 L 48.45838684764264 -0.5 L 25 -0.5 Z M 121.88026184764264 0.5 L 145.3386486952853 0.5 L 145.3386486952853 3.5 L 152.3386486952853 0 L 145.3386486952853 -3.5 L 145.3386486952853 -0.5 L 121.88026184764264 -0.5 Z"/><text text-anchor="middle" pointer-events="none" font-size="8px" fill="#000000" x="85.16932434764264" y="3" transform="rotate(180 85.16932434764264 0)" font-family="sans-serif">FAMILY_MEMBER</text></g><g class="relationship" transform="translate(151.57977139525048 161.19665631745684) rotate(205.49339909333867)"><path class="outline" fill="#A5ABB6" stroke="none" d="M 25 0.5 L 26.90057229151906 0.5 L 26.90057229151906 -0.5 L 25 -0.5 Z M 79.87322854151907 0.5 L 81.77380083303812 0.5 L 81.77380083303812 3.5 L 88.77380083303812 0 L 81.77380083303812 -3.5 L 81.77380083303812 -0.5 L 79.87322854151907 -0.5 Z"/><text text-anchor="middle" pointer-events="none" font-size="8px" fill="#000000" x="53.38690041651906" y="3" transform="rotate(180 53.38690041651906 0)" font-family="sans-serif">FAMILY_M…</text></g><g class="relationship" transform="translate(105.90996414889439 265.66055947073795) rotate(293.61411487967234)"><path class="outline" fill="#A5ABB6" stroke="none" d="M 25 0.5 L 29.159643895997547 0.5 L 29.159643895997547 -0.5 L 25 -0.5 Z M 77.85105014599755 0.5 L 82.0106940419951 0.5 L 82.0106940419951 3.5 L 89.0106940419951 0 L 82.0106940419951 -3.5 L 82.0106940419951 -0.5 L 77.85105014599755 -0.5 Z"/><text text-anchor="middle" pointer-events="none" font-size="8px" fill="#000000" x="53.50534702099755" y="3" font-family="sans-serif">KILLED_BY</text></g><g class="relationship" transform="translate(66.50684625041501 22.848830336164262) rotate(418.41178615122226)"><path class="outline" fill="#A5ABB6" stroke="none" d="M 25 0.5 L 53.36009030510077 0.5 L 53.36009030510077 -0.5 L 25 -0.5 Z M 102.05149655510077 0.5 L 130.41158686020154 0.5 L 130.41158686020154 3.5 L 137.41158686020154 0 L 130.41158686020154 -3.5 L 130.41158686020154 -0.5 L 102.05149655510077 -0.5 Z"/><text text-anchor="middle" pointer-events="none" font-size="8px" fill="#000000" x="77.70579343010077" y="3" font-family="sans-serif">KILLED_BY</text></g><g class="relationship" transform="translate(184.17750182425723 49.38286957214556) rotate(466.253298298784)"><path class="outline" fill="#A5ABB6" stroke="none" d="M 25 0.5 L 30.388597195876493 0.5 L 30.388597195876493 -0.5 L 25 -0.5 Z M 79.08000344587649 0.5 L 84.46860064175299 0.5 L 84.46860064175299 3.5 L 91.46860064175299 0 L 84.46860064175299 -3.5 L 84.46860064175299 -0.5 L 79.08000344587649 -0.5 Z"/><text text-anchor="middle" pointer-events="none" font-size="8px" fill="#000000" x="54.73430032087649" y="3" transform="rotate(180 54.73430032087649 0)" font-family="sans-serif">KILLED_BY</text></g><g class="relationship" transform="translate(216.53748824209094 170.0303739757822) rotate(394.6707536200874)"><path class="outline" fill="#A5ABB6" stroke="none" d="M 25 0.5 L 91.73240079957877 0.5 L 91.73240079957877 -0.5 L 25 -0.5 Z M 105.29099454957877 0.5 L 172.02339534915754 0.5 L 172.02339534915754 3.5 L 179.02339534915754 0 L 172.02339534915754 -3.5 L 172.02339534915754 -0.5 L 105.29099454957877 -0.5 Z"/><text text-anchor="middle" pointer-events="none" font-size="8px" fill="#000000" x="98.51169767457877" y="3" font-family="sans-serif">IS</text></g><g class="relationship" transform="translate(216.53748824209094 170.0303739757822) rotate(372.4910699201837)"><path class="outline" fill="#A5ABB6" stroke="none" d="M 25 0.5 L 59.01953127120068 0.5 L 59.01953127120068 -0.5 L 25 -0.5 Z M 124.14453127120068 0.5 L 158.16406254240135 0.5 L 158.16406254240135 3.5 L 165.16406254240135 0 L 158.16406254240135 -3.5 L 158.16406254240135 -0.5 L 124.14453127120068 -0.5 Z"/><text text-anchor="middle" pointer-events="none" font-size="8px" fill="#000000" x="91.58203127120068" y="3" font-family="sans-serif">HAS_POSITION</text></g><g class="relationship" transform="translate(184.17750182425723 49.38286957214556) rotate(434.9855628713733)"><path class="outline" fill="#A5ABB6" stroke="none" d="M 25 0.5 L 34.610259440210505 0.5 L 34.610259440210505 -0.5 L 25 -0.5 Z M 83.30166569021051 0.5 L 92.91192513042101 0.5 L 92.91192513042101 3.5 L 99.91192513042101 0 L 92.91192513042101 -3.5 L 92.91192513042101 -0.5 L 83.30166569021051 -0.5 Z"/><text text-anchor="middle" pointer-events="none" font-size="8px" fill="#000000" x="58.955962565210505" y="3" font-family="sans-serif">KILLED_BY</text></g><g class="relationship" transform="translate(280.66123325512615 161.00525301155446) rotate(381.60714353990573)"><path class="outline" fill="#A5ABB6" stroke="none" d="M 25 0.5 L 101.22704757011626 0.5 L 101.22704757011626 -0.5 L 25 -0.5 Z M 114.78564132011626 0.5 L 191.0126888902325 0.5 L 191.0126888902325 3.5 L 198.0126888902325 0 L 191.0126888902325 -3.5 L 191.0126888902325 -0.5 L 114.78564132011626 -0.5 Z"/><text text-anchor="middle" pointer-events="none" font-size="8px" fill="#000000" x="108.00634444511626" y="3" font-family="sans-serif">IS</text></g><g class="relationship" transform="translate(280.66123325512615 161.00525301155446) rotate(362.9859862691906)"><path class="outline" fill="#A5ABB6" stroke="none" d="M 25 0.5 L 71.51893736797258 0.5 L 71.51893736797258 -0.5 L 25 -0.5 Z M 136.64393736797257 0.5 L 183.16287473594517 0.5 L 183.16287473594517 3.5 L 190.16287473594517 0 L 183.16287473594517 -3.5 L 183.16287473594517 -0.5 L 136.64393736797257 -0.5 Z"/><text text-anchor="middle" pointer-events="none" font-size="8px" fill="#000000" x="104.08143736797258" y="3" font-family="sans-serif">HAS_POSITION</text></g><g class="relationship" transform="translate(180.79353248507834 -87.22239204638774) rotate(309.614557951623)"><path class="outline" fill="#A5ABB6" stroke="none" d="M 25 0.5 L 75.44116623451244 0.5 L 75.44116623451244 -0.5 L 25 -0.5 Z M 88.99975998451244 0.5 L 139.44092621902487 0.5 L 139.44092621902487 3.5 L 146.44092621902487 0 L 139.44092621902487 -3.5 L 139.44092621902487 -0.5 L 88.99975998451244 -0.5 Z"/><text text-anchor="middle" pointer-events="none" font-size="8px" fill="#000000" x="82.22046310951244" y="3" font-family="sans-serif">IS</text></g><g class="relationship" transform="translate(180.79353248507834 -87.22239204638774) rotate(280.2932902909476)"><path class="outline" fill="#A5ABB6" stroke="none" d="M 25 0.5 L 52.144174771592816 0.5 L 52.144174771592816 -0.5 L 25 -0.5 Z M 117.26917477159282 0.5 L 144.41334954318563 0.5 L 144.41334954318563 3.5 L 151.41334954318563 0 L 144.41334954318563 -3.5 L 144.41334954318563 -0.5 L 117.26917477159282 -0.5 Z"/><text text-anchor="middle" pointer-events="none" font-size="8px" fill="#000000" x="84.70667477159282" y="3" font-family="sans-serif">HAS_POSITION</text></g><g class="relationship" transform="translate(327.73187074605227 -311.5590775586063) rotate(483.2244072602732)"><path class="outline" fill="#A5ABB6" stroke="none" d="M 25 0.5 L 106.24179043564536 0.5 L 106.24179043564536 -0.5 L 25 -0.5 Z M 154.93319668564536 0.5 L 236.1749871212907 0.5 L 236.1749871212907 3.5 L 243.1749871212907 0 L 236.1749871212907 -3.5 L 236.1749871212907 -0.5 L 154.93319668564536 -0.5 Z"/><text text-anchor="middle" pointer-events="none" font-size="8px" fill="#000000" x="130.58749356064536" y="3" transform="rotate(180 130.58749356064536 0)" font-family="sans-serif">KILLED_BY</text></g><g class="relationship" transform="translate(184.17750182425723 49.38286957214556) rotate(268.58096595937604)"><path class="outline" fill="#A5ABB6" stroke="none" d="M 25 0.5 L 40.477881292015965 0.5 L 40.477881292015965 -0.5 L 25 -0.5 Z M 89.16928754201597 0.5 L 104.64716883403193 0.5 L 104.64716883403193 3.5 L 111.64716883403193 0 L 104.64716883403193 -3.5 L 104.64716883403193 -0.5 L 89.16928754201597 -0.5 Z"/><text text-anchor="middle" pointer-events="none" font-size="8px" fill="#000000" x="64.82358441701597" y="3" transform="rotate(180 64.82358441701597 0)" font-family="sans-serif">KILLED_BY</text></g><g class="relationship" transform="translate(125.01501738573305 10.24294466529815) rotate(299.7821088301957)"><path class="outline" fill="#A5ABB6" stroke="none" d="M 25 0.5 L 28.303060456690282 0.5 L 28.303060456690282 -0.5 L 25 -0.5 Z M 76.99446670669028 0.5 L 80.29752716338056 0.5 L 80.29752716338056 3.5 L 87.29752716338056 0 L 80.29752716338056 -3.5 L 80.29752716338056 -0.5 L 76.99446670669028 -0.5 Z"/><text text-anchor="middle" pointer-events="none" font-size="8px" fill="#000000" x="52.64876358169028" y="3" font-family="sans-serif">KILLED_BY</text></g><g class="relationship" transform="translate(184.17750182425723 49.38286957214556) rotate(357.84295869905986)"><path class="outline" fill="#A5ABB6" stroke="none" d="M 25 0.5 L 78.23655487812647 0.5 L 78.23655487812647 -0.5 L 25 -0.5 Z M 91.79514862812647 0.5 L 145.03170350625294 0.5 L 145.03170350625294 3.5 L 152.03170350625294 0 L 145.03170350625294 -3.5 L 145.03170350625294 -0.5 L 91.79514862812647 -0.5 Z"/><text text-anchor="middle" pointer-events="none" font-size="8px" fill="#000000" x="85.01585175312647" y="3" font-family="sans-serif">IS</text></g><g class="relationship" transform="translate(184.17750182425723 49.38286957214556) rotate(334.80100265442366)"><path class="outline" fill="#A5ABB6" stroke="none" d="M 25 0.5 L 50.730229635170815 0.5 L 50.730229635170815 -0.5 L 25 -0.5 Z M 115.85522963517082 0.5 L 141.58545927034163 0.5 L 141.58545927034163 3.5 L 148.58545927034163 0 L 141.58545927034163 -3.5 L 141.58545927034163 -0.5 L 115.85522963517082 -0.5 Z"/><text text-anchor="middle" pointer-events="none" font-size="8px" fill="#000000" x="83.29272963517082" y="3" font-family="sans-serif">HAS_POSITION</text></g><g class="relationship" transform="translate(66.50684625041501 22.848830336164262) rotate(372.7073266628116)"><path class="outline" fill="#A5ABB6" stroke="none" d="M 25 0.5 L 32.46689593472052 0.5 L 32.46689593472052 -0.5 L 25 -0.5 Z M 81.15830218472053 0.5 L 88.62519811944104 0.5 L 88.62519811944104 3.5 L 95.62519811944104 0 L 88.62519811944104 -3.5 L 88.62519811944104 -0.5 L 81.15830218472053 -0.5 Z"/><text text-anchor="middle" pointer-events="none" font-size="8px" fill="#000000" x="56.81259905972052" y="3" font-family="sans-serif">KILLED_BY</text></g><g class="relationship" transform="translate(271.3162293177651 81.4256064305245) rotate(359.7091021104186)"><path class="outline" fill="#A5ABB6" stroke="none" d="M 25 0.5 L 94.00832839574086 0.5 L 94.00832839574086 -0.5 L 25 -0.5 Z M 107.56692214574086 0.5 L 176.57525054148172 0.5 L 176.57525054148172 3.5 L 183.57525054148172 0 L 176.57525054148172 -3.5 L 176.57525054148172 -0.5 L 107.56692214574086 -0.5 Z"/><text text-anchor="middle" pointer-events="none" font-size="8px" fill="#000000" x="100.78762527074086" y="3" font-family="sans-serif">IS</text></g><g class="relationship" transform="translate(271.3162293177651 81.4256064305245) rotate(342.96116718046744)"><path class="outline" fill="#A5ABB6" stroke="none" d="M 25 0.5 L 70.29239034582376 0.5 L 70.29239034582376 -0.5 L 25 -0.5 Z M 135.41739034582378 0.5 L 180.70978069164752 0.5 L 180.70978069164752 3.5 L 187.70978069164752 0 L 180.70978069164752 -3.5 L 180.70978069164752 -0.5 L 135.41739034582378 -0.5 Z"/><text text-anchor="middle" pointer-events="none" font-size="8px" fill="#000000" x="102.85489034582376" y="3" font-family="sans-serif">HAS_POSITION</text></g><g class="relationship" transform="translate(183.62672205967812 284.71001223902823) rotate(413.4752004956275)"><path class="outline" fill="#A5ABB6" stroke="none" d="M 25 0.5 L 91.4257150803866 0.5 L 91.4257150803866 -0.5 L 25 -0.5 Z M 104.9843088303866 0.5 L 171.4100239107732 0.5 L 171.4100239107732 3.5 L 178.4100239107732 0 L 171.4100239107732 -3.5 L 171.4100239107732 -0.5 L 104.9843088303866 -0.5 Z"/><text text-anchor="middle" pointer-events="none" font-size="8px" fill="#000000" x="98.2050119553866" y="3" font-family="sans-serif">IS</text></g><g class="relationship" transform="translate(183.62672205967812 284.71001223902823) rotate(395.2308156078276)"><path class="outline" fill="#A5ABB6" stroke="none" d="M 25 0.5 L 68.20625926530175 0.5 L 68.20625926530175 -0.5 L 25 -0.5 Z M 133.33125926530175 0.5 L 176.5375185306035 0.5 L 176.5375185306035 3.5 L 183.5375185306035 0 L 176.5375185306035 -3.5 L 176.5375185306035 -0.5 L 133.33125926530175 -0.5 Z"/><text text-anchor="middle" pointer-events="none" font-size="8px" fill="#000000" x="100.76875926530175" y="3" font-family="sans-serif">HAS_POSITION</text></g><g class="relationship" transform="translate(228.3929908341453 -8.59139708337935) rotate(339.19642579664037)"><path class="outline" fill="#A5ABB6" stroke="none" d="M 25 0.5 L 94.66782478092337 0.5 L 94.66782478092337 -0.5 L 25 -0.5 Z M 108.22641853092337 0.5 L 177.89424331184674 0.5 L 177.89424331184674 3.5 L 184.89424331184674 0 L 177.89424331184674 -3.5 L 177.89424331184674 -0.5 L 108.22641853092337 -0.5 Z"/><text text-anchor="middle" pointer-events="none" font-size="8px" fill="#000000" x="101.44712165592337" y="3" font-family="sans-serif">IS</text></g><g class="relationship" transform="translate(228.3929908341453 -8.59139708337935) rotate(320.5018109201483)"><path class="outline" fill="#A5ABB6" stroke="none" d="M 25 0.5 L 61.59848427873172 0.5 L 61.59848427873172 -0.5 L 25 -0.5 Z M 126.72348427873172 0.5 L 163.32196855746344 0.5 L 163.32196855746344 3.5 L 170.32196855746344 0 L 163.32196855746344 -3.5 L 163.32196855746344 -0.5 L 126.72348427873172 -0.5 Z"/><text text-anchor="middle" pointer-events="none" font-size="8px" fill="#000000" x="94.16098427873172" y="3" font-family="sans-serif">HAS_POSITION</text></g><g class="relationship" transform="translate(-58.194100984842436 -14.139048930367071) rotate(231.85639805040364)"><path class="outline" fill="#A5ABB6" stroke="none" d="M 25 0.5 L 62.77223595341391 0.5 L 62.77223595341391 -0.5 L 25 -0.5 Z M 76.33082970341391 0.5 L 114.10306565682782 0.5 L 114.10306565682782 3.5 L 121.10306565682782 0 L 114.10306565682782 -3.5 L 114.10306565682782 -0.5 L 76.33082970341391 -0.5 Z"/><text text-anchor="middle" pointer-events="none" font-size="8px" fill="#000000" x="69.55153282841391" y="3" transform="rotate(180 69.55153282841391 0)" font-family="sans-serif">IS</text></g><g class="relationship" transform="translate(-58.194100984842436 -14.139048930367071) rotate(258.47777395328376)"><path class="outline" fill="#A5ABB6" stroke="none" d="M 25 0.5 L 46.059960477067946 0.5 L 46.059960477067946 -0.5 L 25 -0.5 Z M 111.18496047706795 0.5 L 132.2449209541359 0.5 L 132.2449209541359 3.5 L 139.2449209541359 0 L 132.2449209541359 -3.5 L 132.2449209541359 -0.5 L 111.18496047706795 -0.5 Z"/><text text-anchor="middle" pointer-events="none" font-size="8px" fill="#000000" x="78.62246047706795" y="3" transform="rotate(180 78.62246047706795 0)" font-family="sans-serif">HAS_POSITION</text></g><g class="relationship" transform="translate(125.01501738573305 10.24294466529815) rotate(280.60128655249923)"><path class="outline" fill="#A5ABB6" stroke="none" d="M 25 0.5 L 76.63907290246671 0.5 L 76.63907290246671 -0.5 L 25 -0.5 Z M 90.19766665246671 0.5 L 141.83673955493342 0.5 L 141.83673955493342 3.5 L 148.83673955493342 0 L 141.83673955493342 -3.5 L 141.83673955493342 -0.5 L 90.19766665246671 -0.5 Z"/><text text-anchor="middle" pointer-events="none" font-size="8px" fill="#000000" x="83.41836977746671" y="3" font-family="sans-serif">IS</text></g><g class="relationship" transform="translate(125.01501738573305 10.24294466529815) rotate(315.05838704623915)"><path class="outline" fill="#A5ABB6" stroke="none" d="M 25 0.5 L 51.5358021140966 0.5 L 51.5358021140966 -0.5 L 25 -0.5 Z M 116.6608021140966 0.5 L 143.1966042281932 0.5 L 143.1966042281932 3.5 L 150.1966042281932 0 L 143.1966042281932 -3.5 L 143.1966042281932 -0.5 L 116.6608021140966 -0.5 Z"/><text text-anchor="middle" pointer-events="none" font-size="8px" fill="#000000" x="84.0983021140966" y="3" font-family="sans-serif">HAS_POSITION</text></g><g class="relationship" transform="translate(33.294698147425 190.36644546308372) rotate(296.98555630625424)"><path class="outline" fill="#A5ABB6" stroke="none" d="M 25 0.5 L 73.2199840552035 0.5 L 73.2199840552035 -0.5 L 25 -0.5 Z M 121.9113903052035 0.5 L 170.131374360407 0.5 L 170.131374360407 3.5 L 177.131374360407 0 L 170.131374360407 -3.5 L 170.131374360407 -0.5 L 121.9113903052035 -0.5 Z"/><text text-anchor="middle" pointer-events="none" font-size="8px" fill="#000000" x="97.5656871802035" y="3" font-family="sans-serif">KILLED_BY</text></g><g class="relationship" transform="translate(105.90996414889439 265.66055947073795) rotate(432.7473654706528)"><path class="outline" fill="#A5ABB6" stroke="none" d="M 25 0.5 L 76.62662530341187 0.5 L 76.62662530341187 -0.5 L 25 -0.5 Z M 90.18521905341187 0.5 L 141.81184435682374 0.5 L 141.81184435682374 3.5 L 148.81184435682374 0 L 141.81184435682374 -3.5 L 141.81184435682374 -0.5 L 90.18521905341187 -0.5 Z"/><text text-anchor="middle" pointer-events="none" font-size="8px" fill="#000000" x="83.40592217841187" y="3" font-family="sans-serif">IS</text></g><g class="relationship" transform="translate(105.90996414889439 265.66055947073795) rotate(411.8628283515386)"><path class="outline" fill="#A5ABB6" stroke="none" d="M 25 0.5 L 51.36490080895362 0.5 L 51.36490080895362 -0.5 L 25 -0.5 Z M 116.48990080895362 0.5 L 142.85480161790724 0.5 L 142.85480161790724 3.5 L 149.85480161790724 0 L 142.85480161790724 -3.5 L 142.85480161790724 -0.5 L 116.48990080895362 -0.5 Z"/><text text-anchor="middle" pointer-events="none" font-size="8px" fill="#000000" x="83.92740080895362" y="3" font-family="sans-serif">HAS_POSITION</text></g><g class="relationship" transform="translate(3.1452597809522174 276.0901285614541) rotate(354.20490538880404)"><path class="outline" fill="#A5ABB6" stroke="none" d="M 25 0.5 L 25.13653234312298 0.5 L 25.13653234312298 -0.5 L 25 -0.5 Z M 71.15606359312298 0.5 L 71.29259593624596 0.5 L 71.29259593624596 3.5 L 78.29259593624596 0 L 71.29259593624596 -3.5 L 71.29259593624596 -0.5 L 71.15606359312298 -0.5 Z"/><text text-anchor="middle" pointer-events="none" font-size="8px" fill="#000000" x="48.14629796812298" y="3" font-family="sans-serif">KILLED_…</text></g><g class="relationship" transform="translate(12.440295359754675 -76.28679709514171) rotate(279.69037948886046)"><path class="outline" fill="#A5ABB6" stroke="none" d="M 25 0.5 L 85.1794578142726 0.5 L 85.1794578142726 -0.5 L 25 -0.5 Z M 98.7380515642726 0.5 L 158.9175093785452 0.5 L 158.9175093785452 3.5 L 165.9175093785452 0 L 158.9175093785452 -3.5 L 158.9175093785452 -0.5 L 98.7380515642726 -0.5 Z"/><text text-anchor="middle" pointer-events="none" font-size="8px" fill="#000000" x="91.9587546892726" y="3" font-family="sans-serif">IS</text></g><g class="relationship" transform="translate(12.440295359754675 -76.28679709514171) rotate(260.0231712749744)"><path class="outline" fill="#A5ABB6" stroke="none" d="M 25 0.5 L 56.12274330251567 0.5 L 56.12274330251567 -0.5 L 25 -0.5 Z M 121.24774330251567 0.5 L 152.37048660503135 0.5 L 152.37048660503135 3.5 L 159.37048660503135 0 L 152.37048660503135 -3.5 L 152.37048660503135 -0.5 L 121.24774330251567 -0.5 Z"/><text text-anchor="middle" pointer-events="none" font-size="8px" fill="#000000" x="88.68524330251567" y="3" transform="rotate(180 88.68524330251567 0)" font-family="sans-serif">HAS_POSITION</text></g><g class="relationship" transform="translate(-97.38680335522385 124.36119040799026) rotate(502.71335651443826)"><path class="outline" fill="#A5ABB6" stroke="none" d="M 25 0.5 L 66.7472420544933 0.5 L 66.7472420544933 -0.5 L 25 -0.5 Z M 80.3058358044933 0.5 L 122.0530778589866 0.5 L 122.0530778589866 3.5 L 129.0530778589866 0 L 122.0530778589866 -3.5 L 122.0530778589866 -0.5 L 80.3058358044933 -0.5 Z"/><text text-anchor="middle" pointer-events="none" font-size="8px" fill="#000000" x="73.5265389294933" y="3" transform="rotate(180 73.5265389294933 0)" font-family="sans-serif">IS</text></g><g class="relationship" transform="translate(-97.38680335522385 124.36119040799026) rotate(186.71537034516894)"><path class="outline" fill="#A5ABB6" stroke="none" d="M 25 0.5 L 31.384806602028547 0.5 L 31.384806602028547 -0.5 L 25 -0.5 Z M 96.50980660202855 0.5 L 102.8946132040571 0.5 L 102.8946132040571 3.5 L 109.8946132040571 0 L 102.8946132040571 -3.5 L 102.8946132040571 -0.5 L 96.50980660202855 -0.5 Z"/><text text-anchor="middle" pointer-events="none" font-size="8px" fill="#000000" x="63.94730660202855" y="3" transform="rotate(180 63.94730660202855 0)" font-family="sans-serif">HAS_POSITION</text></g><g class="relationship" transform="translate(33.294698147425 190.36644546308372) rotate(490.72327995662215)"><path class="outline" fill="#A5ABB6" stroke="none" d="M 25 0.5 L 69.19522785838201 0.5 L 69.19522785838201 -0.5 L 25 -0.5 Z M 82.75382160838201 0.5 L 126.94904946676402 0.5 L 126.94904946676402 3.5 L 133.94904946676402 0 L 126.94904946676402 -3.5 L 126.94904946676402 -0.5 L 82.75382160838201 -0.5 Z"/><text text-anchor="middle" pointer-events="none" font-size="8px" fill="#000000" x="75.97452473338201" y="3" transform="rotate(180 75.97452473338201 0)" font-family="sans-serif">IS</text></g><g class="relationship" transform="translate(33.294698147425 190.36644546308372) rotate(448.6320480793688)"><path class="outline" fill="#A5ABB6" stroke="none" d="M 25 0.5 L 41.65183269598816 0.5 L 41.65183269598816 -0.5 L 25 -0.5 Z M 106.77683269598816 0.5 L 123.42866539197632 0.5 L 123.42866539197632 3.5 L 130.42866539197632 0 L 123.42866539197632 -3.5 L 123.42866539197632 -0.5 L 106.77683269598816 -0.5 Z"/><text text-anchor="middle" pointer-events="none" font-size="8px" fill="#000000" x="74.21433269598816" y="3" font-family="sans-serif">HAS_POSITION</text></g><g class="relationship" transform="translate(3.1452597809522174 276.0901285614541) rotate(482.3773700217016)"><path class="outline" fill="#A5ABB6" stroke="none" d="M 25 0.5 L 77.37537489114123 0.5 L 77.37537489114123 -0.5 L 25 -0.5 Z M 90.93396864114123 0.5 L 143.30934353228247 0.5 L 143.30934353228247 3.5 L 150.30934353228247 0 L 143.30934353228247 -3.5 L 143.30934353228247 -0.5 L 90.93396864114123 -0.5 Z"/><text text-anchor="middle" pointer-events="none" font-size="8px" fill="#000000" x="84.15467176614123" y="3" transform="rotate(180 84.15467176614123 0)" font-family="sans-serif">IS</text></g><g class="relationship" transform="translate(3.1452597809522174 276.0901285614541) rotate(431.8506150228672)"><path class="outline" fill="#A5ABB6" stroke="none" d="M 25 0.5 L 58.395288860156384 0.5 L 58.395288860156384 -0.5 L 25 -0.5 Z M 123.52028886015638 0.5 L 156.91557772031277 0.5 L 156.91557772031277 3.5 L 163.91557772031277 0 L 156.91557772031277 -3.5 L 156.91557772031277 -0.5 L 123.52028886015638 -0.5 Z"/><text text-anchor="middle" pointer-events="none" font-size="8px" fill="#000000" x="90.95778886015638" y="3" font-family="sans-serif">HAS_POSITION</text></g><g class="relationship" transform="translate(66.50684625041501 22.848830336164262) rotate(419.8011133494601)"><path class="outline" fill="#A5ABB6" stroke="none" d="M 25 0.5 L 37.40830058969797 0.5 L 37.40830058969797 -0.5 L 25 -0.5 Z M 50.96689433969797 0.5 L 63.375194929395946 0.5 L 63.375194929395946 3.5 L 70.37519492939595 0 L 63.375194929395946 -3.5 L 63.375194929395946 -0.5 L 50.96689433969797 -0.5 Z"/><text text-anchor="middle" pointer-events="none" font-size="8px" fill="#000000" x="44.18759746469797" y="3" font-family="sans-serif">IS</text></g><g class="relationship" transform="translate(66.50684625041501 22.848830336164262) rotate(268.43877187543194)"><path class="outline" fill="#A5ABB6" stroke="none" d="M 25 0.5 L 44.19635161618497 0.5 L 44.19635161618497 -0.5 L 25 -0.5 Z M 109.32135161618497 0.5 L 128.51770323236994 0.5 L 128.51770323236994 3.5 L 135.51770323236994 0 L 128.51770323236994 -3.5 L 128.51770323236994 -0.5 L 109.32135161618497 -0.5 Z"/><text text-anchor="middle" pointer-events="none" font-size="8px" fill="#000000" x="76.75885161618497" y="3" transform="rotate(180 76.75885161618497 0)" font-family="sans-serif">HAS_POSITION</text></g><g class="relationship" transform="translate(-141.54579662927316 187.86856344452286) rotate(499.9554917478467)"><path class="outline" fill="#A5ABB6" stroke="none" d="M 25 0.5 L 76.34789832816129 0.5 L 76.34789832816129 -0.5 L 25 -0.5 Z M 89.90649207816129 0.5 L 141.25439040632259 0.5 L 141.25439040632259 3.5 L 148.25439040632259 0 L 141.25439040632259 -3.5 L 141.25439040632259 -0.5 L 89.90649207816129 -0.5 Z"/><text text-anchor="middle" pointer-events="none" font-size="8px" fill="#000000" x="83.12719520316129" y="3" transform="rotate(180 83.12719520316129 0)" font-family="sans-serif">IS</text></g><g class="relationship" transform="translate(-141.54579662927316 187.86856344452286) rotate(478.4588896542804)"><path class="outline" fill="#A5ABB6" stroke="none" d="M 25 0.5 L 51.16530405798278 0.5 L 51.16530405798278 -0.5 L 25 -0.5 Z M 116.29030405798278 0.5 L 142.45560811596556 0.5 L 142.45560811596556 3.5 L 149.45560811596556 0 L 142.45560811596556 -3.5 L 142.45560811596556 -0.5 L 116.29030405798278 -0.5 Z"/><text text-anchor="middle" pointer-events="none" font-size="8px" fill="#000000" x="83.72780405798278" y="3" transform="rotate(180 83.72780405798278 0)" font-family="sans-serif">HAS_POSITION</text></g><g class="relationship" transform="translate(380.94627022430745 -621.8486911676054) rotate(332.776888309044)"><path class="outline" fill="#A5ABB6" stroke="none" d="M 25 0.5 L 45.67822830362547 0.5 L 45.67822830362547 -0.5 L 25 -0.5 Z M 59.23682205362547 0.5 L 79.91505035725093 0.5 L 79.91505035725093 3.5 L 86.91505035725093 0 L 79.91505035725093 -3.5 L 79.91505035725093 -0.5 L 59.23682205362547 -0.5 Z"/><text text-anchor="middle" pointer-events="none" font-size="8px" fill="#000000" x="52.45752517862547" y="3" font-family="sans-serif">IS</text></g><g class="relationship" transform="translate(380.94627022430745 -621.8486911676054) rotate(224.97611836868953)"><path class="outline" fill="#A5ABB6" stroke="none" d="M 25 0.5 L 25.18756762856161 0.5 L 25.18756762856161 -0.5 L 25 -0.5 Z M 84.08991137856161 0.5 L 84.27747900712322 0.5 L 84.27747900712322 3.5 L 91.27747900712322 0 L 84.27747900712322 -3.5 L 84.27747900712322 -0.5 L 84.08991137856161 -0.5 Z"/><text text-anchor="middle" pointer-events="none" font-size="8px" fill="#000000" x="54.63873950356161" y="3" transform="rotate(180 54.63873950356161 0)" font-family="sans-serif">HAS_POSIT…</text></g><g class="relationship" transform="translate(327.73187074605227 -311.5590775586063) rotate(281.4106783300631)"><path class="outline" fill="#A5ABB6" stroke="none" d="M 25 0.5 L 48.906525031314516 0.5 L 48.906525031314516 -0.5 L 25 -0.5 Z M 122.32840003131452 0.5 L 146.23492506262903 0.5 L 146.23492506262903 3.5 L 153.23492506262903 0 L 146.23492506262903 -3.5 L 146.23492506262903 -0.5 L 122.32840003131452 -0.5 Z"/><text text-anchor="middle" pointer-events="none" font-size="8px" fill="#000000" x="85.61746253131452" y="3" font-family="sans-serif">FAMILY_MEMBER</text></g><g class="relationship" transform="translate(380.94627022430745 -621.8486911676054) rotate(457.5428919390987)"><path class="outline" fill="#A5ABB6" stroke="none" d="M 25 0.5 L 28.169579476288703 0.5 L 28.169579476288703 -0.5 L 25 -0.5 Z M 101.5914544762887 0.5 L 104.7610339525774 0.5 L 104.7610339525774 3.5 L 111.7610339525774 0 L 104.7610339525774 -3.5 L 104.7610339525774 -0.5 L 101.5914544762887 -0.5 Z"/><text text-anchor="middle" pointer-events="none" font-size="8px" fill="#000000" x="64.8805169762887" y="3" transform="rotate(180 64.8805169762887 0)" font-family="sans-serif">FAMILY_MEMBER</text></g><g class="relationship" transform="translate(327.73187074605227 -311.5590775586063) rotate(343.50567940191013)"><path class="outline" fill="#A5ABB6" stroke="none" d="M 25 0.5 L 68.84523659670788 0.5 L 68.84523659670788 -0.5 L 25 -0.5 Z M 82.40383034670788 0.5 L 126.24906694341576 0.5 L 126.24906694341576 3.5 L 133.24906694341576 0 L 126.24906694341576 -3.5 L 126.24906694341576 -0.5 L 82.40383034670788 -0.5 Z"/><text text-anchor="middle" pointer-events="none" font-size="8px" fill="#000000" x="75.62453347170788" y="3" font-family="sans-serif">IS</text></g><g class="relationship" transform="translate(327.73187074605227 -311.5590775586063) rotate(314.94723572551277)"><path class="outline" fill="#A5ABB6" stroke="none" d="M 25 0.5 L 37.145496964641566 0.5 L 37.145496964641566 -0.5 L 25 -0.5 Z M 102.27049696464157 0.5 L 114.41599392928313 0.5 L 114.41599392928313 3.5 L 121.41599392928313 0 L 114.41599392928313 -3.5 L 114.41599392928313 -0.5 L 102.27049696464157 -0.5 Z"/><text text-anchor="middle" pointer-events="none" font-size="8px" fill="#000000" x="69.70799696464157" y="3" font-family="sans-serif">HAS_POSITION</text></g><g class="relationship" transform="translate(-323.9021794643297 -169.3432981746255) rotate(252.99959583577294)"><path class="outline" fill="#A5ABB6" stroke="none" d="M 25 0.5 L 70.50604735959614 0.5 L 70.50604735959614 -0.5 L 25 -0.5 Z M 84.06464110959614 0.5 L 129.57068846919228 0.5 L 129.57068846919228 3.5 L 136.57068846919228 0 L 129.57068846919228 -3.5 L 129.57068846919228 -0.5 L 84.06464110959614 -0.5 Z"/><text text-anchor="middle" pointer-events="none" font-size="8px" fill="#000000" x="77.28534423459614" y="3" transform="rotate(180 77.28534423459614 0)" font-family="sans-serif">IS</text></g><g class="relationship" transform="translate(-323.9021794643297 -169.3432981746255) rotate(229.54261589508354)"><path class="outline" fill="#A5ABB6" stroke="none" d="M 25 0.5 L 45.78022651663527 0.5 L 45.78022651663527 -0.5 L 25 -0.5 Z M 110.90522651663527 0.5 L 131.68545303327053 0.5 L 131.68545303327053 3.5 L 138.68545303327053 0 L 131.68545303327053 -3.5 L 131.68545303327053 -0.5 L 110.90522651663527 -0.5 Z"/><text text-anchor="middle" pointer-events="none" font-size="8px" fill="#000000" x="78.34272651663527" y="3" transform="rotate(180 78.34272651663527 0)" font-family="sans-serif">HAS_POSITION</text></g><g class="relationship" transform="translate(-375.4647086697813 -103.10369907909198) rotate(393.42114373054267)"><path class="outline" fill="#A5ABB6" stroke="none" d="M 25 0.5 L 49.3946612730697 0.5 L 49.3946612730697 -0.5 L 25 -0.5 Z M 122.8165362730697 0.5 L 147.2111975461394 0.5 L 147.2111975461394 3.5 L 154.2111975461394 0 L 147.2111975461394 -3.5 L 147.2111975461394 -0.5 L 122.8165362730697 -0.5 Z"/><text text-anchor="middle" pointer-events="none" font-size="8px" fill="#000000" x="86.1055987730697" y="3" font-family="sans-serif">FAMILY_MEMBER</text></g><g class="relationship" transform="translate(-408.7840182521371 63.23791036537785) rotate(339.70594002657606)"><path class="outline" fill="#A5ABB6" stroke="none" d="M 25 0.5 L 57.28992840201707 0.5 L 57.28992840201707 -0.5 L 25 -0.5 Z M 130.71180340201707 0.5 L 163.00173180403414 0.5 L 163.00173180403414 3.5 L 170.00173180403414 0 L 163.00173180403414 -3.5 L 163.00173180403414 -0.5 L 130.71180340201707 -0.5 Z"/><text text-anchor="middle" pointer-events="none" font-size="8px" fill="#000000" x="94.00086590201707" y="3" font-family="sans-serif">FAMILY_MEMBER</text></g><g class="relationship" transform="translate(-310.45986076487395 143.77495596787313) rotate(299.7167727509633)"><path class="outline" fill="#A5ABB6" stroke="none" d="M 25 0.5 L 45.09329471890828 0.5 L 45.09329471890828 -0.5 L 25 -0.5 Z M 118.51516971890828 0.5 L 138.60846443781656 0.5 L 138.60846443781656 3.5 L 145.60846443781656 0 L 138.60846443781656 -3.5 L 138.60846443781656 -0.5 L 118.51516971890828 -0.5 Z"/><text text-anchor="middle" pointer-events="none" font-size="8px" fill="#000000" x="81.80423221890828" y="3" font-family="sans-serif">FAMILY_MEMBER</text></g><g class="relationship" transform="translate(-249.59469531541978 -208.91803504612867) rotate(443.38792783647716)"><path class="outline" fill="#A5ABB6" stroke="none" d="M 25 0.5 L 62.73472971144014 0.5 L 62.73472971144014 -0.5 L 25 -0.5 Z M 136.15660471144014 0.5 L 173.89133442288028 0.5 L 173.89133442288028 3.5 L 180.89133442288028 0 L 173.89133442288028 -3.5 L 173.89133442288028 -0.5 L 136.15660471144014 -0.5 Z"/><text text-anchor="middle" pointer-events="none" font-size="8px" fill="#000000" x="99.44566721144014" y="3" font-family="sans-serif">FAMILY_MEMBER</text></g><g class="relationship" transform="translate(-410.5319343106552 -25.174288552788568) rotate(366.42048934929403)"><path class="outline" fill="#A5ABB6" stroke="none" d="M 25 0.5 L 52.69421187279774 0.5 L 52.69421187279774 -0.5 L 25 -0.5 Z M 126.11608687279774 0.5 L 153.81029874559547 0.5 L 153.81029874559547 3.5 L 160.81029874559547 0 L 153.81029874559547 -3.5 L 153.81029874559547 -0.5 L 126.11608687279774 -0.5 Z"/><text text-anchor="middle" pointer-events="none" font-size="8px" fill="#000000" x="89.40514937279774" y="3" font-family="sans-serif">FAMILY_MEMBER</text></g><g class="relationship" transform="translate(-323.9021794643297 -169.3432981746255) rotate(419.28030361052896)"><path class="outline" fill="#A5ABB6" stroke="none" d="M 25 0.5 L 55.724612614903734 0.5 L 55.724612614903734 -0.5 L 25 -0.5 Z M 129.14648761490372 0.5 L 159.87110022980747 0.5 L 159.87110022980747 3.5 L 166.87110022980747 0 L 159.87110022980747 -3.5 L 159.87110022980747 -0.5 L 129.14648761490372 -0.5 Z"/><text text-anchor="middle" pointer-events="none" font-size="8px" fill="#000000" x="92.43555011490373" y="3" font-family="sans-serif">FAMILY_MEMBER</text></g><g class="relationship" transform="translate(-410.5319343106552 -25.174288552788568) rotate(198.65460941637866)"><path class="outline" fill="#A5ABB6" stroke="none" d="M 25 0.5 L 68.46308339084088 0.5 L 68.46308339084088 -0.5 L 25 -0.5 Z M 82.02167714084088 0.5 L 125.48476053168176 0.5 L 125.48476053168176 3.5 L 132.48476053168176 0 L 125.48476053168176 -3.5 L 125.48476053168176 -0.5 L 82.02167714084088 -0.5 Z"/><text text-anchor="middle" pointer-events="none" font-size="8px" fill="#000000" x="75.24238026584088" y="3" transform="rotate(180 75.24238026584088 0)" font-family="sans-serif">IS</text></g><g class="relationship" transform="translate(-410.5319343106552 -25.174288552788568) rotate(533.1614923802572)"><path class="outline" fill="#A5ABB6" stroke="none" d="M 25 0.5 L 42.4080929483944 0.5 L 42.4080929483944 -0.5 L 25 -0.5 Z M 107.5330929483944 0.5 L 124.9411858967888 0.5 L 124.9411858967888 3.5 L 131.9411858967888 0 L 124.9411858967888 -3.5 L 124.9411858967888 -0.5 L 107.5330929483944 -0.5 Z"/><text text-anchor="middle" pointer-events="none" font-size="8px" fill="#000000" x="74.9705929483944" y="3" transform="rotate(180 74.9705929483944 0)" font-family="sans-serif">HAS_POSITION</text></g><g class="relationship" transform="translate(-249.59469531541978 -208.91803504612867) rotate(280.1674745314761)"><path class="outline" fill="#A5ABB6" stroke="none" d="M 25 0.5 L 73.54407919285396 0.5 L 73.54407919285396 -0.5 L 25 -0.5 Z M 87.10267294285396 0.5 L 135.6467521357079 0.5 L 135.6467521357079 3.5 L 142.6467521357079 0 L 135.6467521357079 -3.5 L 135.6467521357079 -0.5 L 87.10267294285396 -0.5 Z"/><text text-anchor="middle" pointer-events="none" font-size="8px" fill="#000000" x="80.32337606785396" y="3" font-family="sans-serif">IS</text></g><g class="relationship" transform="translate(-249.59469531541978 -208.91803504612867) rotate(256.64344650345504)"><path class="outline" fill="#A5ABB6" stroke="none" d="M 25 0.5 L 48.02309389364491 0.5 L 48.02309389364491 -0.5 L 25 -0.5 Z M 113.14809389364491 0.5 L 136.17118778728982 0.5 L 136.17118778728982 3.5 L 143.17118778728982 0 L 136.17118778728982 -3.5 L 136.17118778728982 -0.5 L 113.14809389364491 -0.5 Z"/><text text-anchor="middle" pointer-events="none" font-size="8px" fill="#000000" x="80.58559389364491" y="3" transform="rotate(180 80.58559389364491 0)" font-family="sans-serif">HAS_POSITION</text></g><g class="relationship" transform="translate(-310.45986076487395 143.77495596787313) rotate(509.65799693318104)"><path class="outline" fill="#A5ABB6" stroke="none" d="M 25 0.5 L 69.10634772733987 0.5 L 69.10634772733987 -0.5 L 25 -0.5 Z M 82.66494147733987 0.5 L 126.77128920467973 0.5 L 126.77128920467973 3.5 L 133.77128920467973 0 L 126.77128920467973 -3.5 L 126.77128920467973 -0.5 L 82.66494147733987 -0.5 Z"/><text text-anchor="middle" pointer-events="none" font-size="8px" fill="#000000" x="75.88564460233987" y="3" transform="rotate(180 75.88564460233987 0)" font-family="sans-serif">IS</text></g><g class="relationship" transform="translate(-310.45986076487395 143.77495596787313) rotate(487.1849155043917)"><path class="outline" fill="#A5ABB6" stroke="none" d="M 25 0.5 L 48.934456557854986 0.5 L 48.934456557854986 -0.5 L 25 -0.5 Z M 114.05945655785499 0.5 L 137.99391311570997 0.5 L 137.99391311570997 3.5 L 144.99391311570997 0 L 137.99391311570997 -3.5 L 137.99391311570997 -0.5 L 114.05945655785499 -0.5 Z"/><text text-anchor="middle" pointer-events="none" font-size="8px" fill="#000000" x="81.49695655785499" y="3" transform="rotate(180 81.49695655785499 0)" font-family="sans-serif">HAS_POSITION</text></g><g class="relationship" transform="translate(-141.54579662927316 187.86856344452286) rotate(194.6301055673208)"><path class="outline" fill="#A5ABB6" stroke="none" d="M 25 0.5 L 59.4414770378262 0.5 L 59.4414770378262 -0.5 L 25 -0.5 Z M 108.1328832878262 0.5 L 142.5743603256524 0.5 L 142.5743603256524 3.5 L 149.5743603256524 0 L 142.5743603256524 -3.5 L 142.5743603256524 -0.5 L 108.1328832878262 -0.5 Z"/><text text-anchor="middle" pointer-events="none" font-size="8px" fill="#000000" x="83.7871801628262" y="3" transform="rotate(180 83.7871801628262 0)" font-family="sans-serif">KILLED_BY</text></g><g class="relationship" transform="translate(-408.7840182521371 63.23791036537785) rotate(528.0498301774278)"><path class="outline" fill="#A5ABB6" stroke="none" d="M 25 0.5 L 69.92348837263384 0.5 L 69.92348837263384 -0.5 L 25 -0.5 Z M 83.48208212263384 0.5 L 128.40557049526768 0.5 L 128.40557049526768 3.5 L 135.40557049526768 0 L 128.40557049526768 -3.5 L 128.40557049526768 -0.5 L 83.48208212263384 -0.5 Z"/><text text-anchor="middle" pointer-events="none" font-size="8px" fill="#000000" x="76.70278524763384" y="3" transform="rotate(180 76.70278524763384 0)" font-family="sans-serif">IS</text></g><g class="relationship" transform="translate(-408.7840182521371 63.23791036537785) rotate(503.81435676063137)"><path class="outline" fill="#A5ABB6" stroke="none" d="M 25 0.5 L 46.50790966918427 0.5 L 46.50790966918427 -0.5 L 25 -0.5 Z M 111.63290966918427 0.5 L 133.14081933836854 0.5 L 133.14081933836854 3.5 L 140.14081933836854 0 L 133.14081933836854 -3.5 L 133.14081933836854 -0.5 L 111.63290966918427 -0.5 Z"/><text text-anchor="middle" pointer-events="none" font-size="8px" fill="#000000" x="79.07040966918427" y="3" transform="rotate(180 79.07040966918427 0)" font-family="sans-serif">HAS_POSITION</text></g><g class="relationship" transform="translate(-375.4647086697813 -103.10369907909198) rotate(226.90868306403462)"><path class="outline" fill="#A5ABB6" stroke="none" d="M 25 0.5 L 67.08659790345763 0.5 L 67.08659790345763 -0.5 L 25 -0.5 Z M 80.64519165345763 0.5 L 122.73178955691526 0.5 L 122.73178955691526 3.5 L 129.73178955691526 0 L 122.73178955691526 -3.5 L 122.73178955691526 -0.5 L 80.64519165345763 -0.5 Z"/><text text-anchor="middle" pointer-events="none" font-size="8px" fill="#000000" x="73.86589477845763" y="3" transform="rotate(180 73.86589477845763 0)" font-family="sans-serif">IS</text></g><g class="relationship" transform="translate(-375.4647086697813 -103.10369907909198) rotate(202.70018792194207)"><path class="outline" fill="#A5ABB6" stroke="none" d="M 25 0.5 L 41.813260266211586 0.5 L 41.813260266211586 -0.5 L 25 -0.5 Z M 106.93826026621159 0.5 L 123.75152053242317 0.5 L 123.75152053242317 3.5 L 130.75152053242317 0 L 123.75152053242317 -3.5 L 123.75152053242317 -0.5 L 106.93826026621159 -0.5 Z"/><text text-anchor="middle" pointer-events="none" font-size="8px" fill="#000000" x="74.37576026621159" y="3" transform="rotate(180 74.37576026621159 0)" font-family="sans-serif">HAS_POSITION</text></g><g class="relationship" transform="translate(-105.15307526068439 603.6715524594249) rotate(503.00020134418173)"><path class="outline" fill="#A5ABB6" stroke="none" d="M 25 0.5 L 62.50382954949505 0.5 L 62.50382954949505 -0.5 L 25 -0.5 Z M 76.06242329949505 0.5 L 113.5662528489901 0.5 L 113.5662528489901 3.5 L 120.5662528489901 0 L 113.5662528489901 -3.5 L 113.5662528489901 -0.5 L 76.06242329949505 -0.5 Z"/><text text-anchor="middle" pointer-events="none" font-size="8px" fill="#000000" x="69.28312642449505" y="3" transform="rotate(180 69.28312642449505 0)" font-family="sans-serif">IS</text></g><g class="relationship" transform="translate(-105.15307526068439 603.6715524594249) rotate(469.5517421409661)"><path class="outline" fill="#A5ABB6" stroke="none" d="M 25 0.5 L 36.89806573451659 0.5 L 36.89806573451659 -0.5 L 25 -0.5 Z M 102.02306573451659 0.5 L 113.92113146903318 0.5 L 113.92113146903318 3.5 L 120.92113146903318 0 L 113.92113146903318 -3.5 L 113.92113146903318 -0.5 L 102.02306573451659 -0.5 Z"/><text text-anchor="middle" pointer-events="none" font-size="8px" fill="#000000" x="69.46056573451659" y="3" transform="rotate(180 69.46056573451659 0)" font-family="sans-serif">HAS_POSITION</text></g><g class="relationship" transform="translate(16.31075361698293 640.2201427397737) rotate(267.4112186472778)"><path class="outline" fill="#A5ABB6" stroke="none" d="M 25 0.5 L 63.86093193308467 0.5 L 63.86093193308467 -0.5 L 25 -0.5 Z M 137.28280693308466 0.5 L 176.14373886616934 0.5 L 176.14373886616934 3.5 L 183.14373886616934 0 L 176.14373886616934 -3.5 L 176.14373886616934 -0.5 L 137.28280693308466 -0.5 Z"/><text text-anchor="middle" pointer-events="none" font-size="8px" fill="#000000" x="100.57186943308467" y="3" transform="rotate(180 100.57186943308467 0)" font-family="sans-serif">FAMILY_MEMBER</text></g><g class="relationship" transform="translate(138.79748936984555 621.0806033655447) rotate(235.06223553125608)"><path class="outline" fill="#A5ABB6" stroke="none" d="M 25 0.5 L 74.93765184265243 0.5 L 74.93765184265243 -0.5 L 25 -0.5 Z M 148.35952684265243 0.5 L 198.29717868530486 0.5 L 198.29717868530486 3.5 L 205.29717868530486 0 L 198.29717868530486 -3.5 L 198.29717868530486 -0.5 L 148.35952684265243 -0.5 Z"/><text text-anchor="middle" pointer-events="none" font-size="8px" fill="#000000" x="111.64858934265243" y="3" transform="rotate(180 111.64858934265243 0)" font-family="sans-serif">FAMILY_MEMBER</text></g><g class="relationship" transform="translate(-105.15307526068439 603.6715524594249) rotate(303.17958549618714)"><path class="outline" fill="#A5ABB6" stroke="none" d="M 25 0.5 L 62.17320004821384 0.5 L 62.17320004821384 -0.5 L 25 -0.5 Z M 135.59507504821386 0.5 L 172.7682750964277 0.5 L 172.7682750964277 3.5 L 179.7682750964277 0 L 172.7682750964277 -3.5 L 172.7682750964277 -0.5 L 135.59507504821386 -0.5 Z"/><text text-anchor="middle" pointer-events="none" font-size="8px" fill="#000000" x="98.88413754821384" y="3" font-family="sans-serif">FAMILY_MEMBER</text></g><g class="relationship" transform="translate(138.79748936984555 621.0806033655447) rotate(421.50167139137545)"><path class="outline" fill="#A5ABB6" stroke="none" d="M 25 0.5 L 67.25941630677919 0.5 L 67.25941630677919 -0.5 L 25 -0.5 Z M 80.81801005677919 0.5 L 123.07742636355837 0.5 L 123.07742636355837 3.5 L 130.07742636355837 0 L 123.07742636355837 -3.5 L 123.07742636355837 -0.5 L 80.81801005677919 -0.5 Z"/><text text-anchor="middle" pointer-events="none" font-size="8px" fill="#000000" x="74.03871318177919" y="3" font-family="sans-serif">IS</text></g><g class="relationship" transform="translate(138.79748936984555 621.0806033655447) rotate(393.06878606779446)"><path class="outline" fill="#A5ABB6" stroke="none" d="M 25 0.5 L 44.27202347940883 0.5 L 44.27202347940883 -0.5 L 25 -0.5 Z M 109.39702347940883 0.5 L 128.66904695881766 0.5 L 128.66904695881766 3.5 L 135.66904695881766 0 L 128.66904695881766 -3.5 L 128.66904695881766 -0.5 L 109.39702347940883 -0.5 Z"/><text text-anchor="middle" pointer-events="none" font-size="8px" fill="#000000" x="76.83452347940883" y="3" font-family="sans-serif">HAS_POSITION</text></g><g class="relationship" transform="translate(16.31075361698293 640.2201427397737) rotate(459.7334214918403)"><path class="outline" fill="#A5ABB6" stroke="none" d="M 25 0.5 L 63.374478529294166 0.5 L 63.374478529294166 -0.5 L 25 -0.5 Z M 76.93307227929417 0.5 L 115.30755080858833 0.5 L 115.30755080858833 3.5 L 122.30755080858833 0 L 115.30755080858833 -3.5 L 115.30755080858833 -0.5 L 76.93307227929417 -0.5 Z"/><text text-anchor="middle" pointer-events="none" font-size="8px" fill="#000000" x="70.15377540429417" y="3" transform="rotate(180 70.15377540429417 0)" font-family="sans-serif">IS</text></g><g class="relationship" transform="translate(16.31075361698293 640.2201427397737) rotate(428.4733867495437)"><path class="outline" fill="#A5ABB6" stroke="none" d="M 25 0.5 L 39.23128421302145 0.5 L 39.23128421302145 -0.5 L 25 -0.5 Z M 104.35628421302145 0.5 L 118.5875684260429 0.5 L 118.5875684260429 3.5 L 125.5875684260429 0 L 118.5875684260429 -3.5 L 118.5875684260429 -0.5 L 104.35628421302145 -0.5 Z"/><text text-anchor="middle" pointer-events="none" font-size="8px" fill="#000000" x="71.79378421302145" y="3" font-family="sans-serif">HAS_POSITION</text></g></g><g class="layer nodes"><g class="node" transform="translate(151.57977139525048,161.19665631745684)"><circle class="outline" cx="0" cy="0" r="25" fill="#ECB5C9" stroke="#da7298" stroke-width="2px"/><text text-anchor="middle" pointer-events="none" font-family="sans-serif" dy="1.5625" font-size="25" fill="#604A0E"/><text text-anchor="middle" pointer-events="none" y="5" font-size="10px" fill="#604A0E" font-family="sans-serif"> Anthony</text></g><g class="node" transform="translate(272.51357244168,287.9361015241046)"><circle class="outline" cx="0" cy="0" r="25" fill="#A5ABB6" stroke="#9AA1AC" stroke-width="2px"/><text text-anchor="middle" pointer-events="none" font-family="sans-serif" dy="1.5625" font-size="25" fill="#FFFFFF"/><text text-anchor="middle" pointer-events="none" y="5" font-size="10px" fill="#FFFFFF" font-family="sans-serif"> AT_LAR…</text></g><g class="node" transform="translate(310.9157230804932,229.7259514754441)"><circle class="outline" cx="0" cy="0" r="25" fill="#569480" stroke="#447666" stroke-width="2px"/><text text-anchor="middle" pointer-events="none" font-family="sans-serif" dy="1.5625" font-size="25" fill="#FFFFFF"/><text text-anchor="middle" pointer-events="none" y="5" font-size="10px" fill="#FFFFFF" font-family="sans-serif"> BOSS</text></g><g class="node" transform="translate(6.909444917486162,432.2888285422126)"><circle class="outline" cx="0" cy="0" r="25" fill="#4C8EDA" stroke="#2870c2" stroke-width="2px"/><text text-anchor="middle" pointer-events="none" font-family="sans-serif" dy="1.5625" font-size="25" fill="#FFFFFF"/><text text-anchor="middle" pointer-events="none" y="5" font-size="10px" fill="#FFFFFF" font-family="sans-serif"> Vittorio/…</text></g><g class="node" transform="translate(48.8835707324499,112.2276035859446)"><circle class="outline" cx="0" cy="0" r="25" fill="#4C8EDA" stroke="#2870c2" stroke-width="2px"/><text text-anchor="middle" pointer-events="none" font-family="sans-serif" dy="1.5625" font-size="25" fill="#FFFFFF"/><text text-anchor="middle" pointer-events="none" y="5" font-size="10px" fill="#FFFFFF" font-family="sans-serif"> DiMeo</text></g><g class="node" transform="translate(-225.88703894944882,-4.396181397020139)"><circle class="outline" cx="0" cy="0" r="25" fill="#4C8EDA" stroke="#2870c2" stroke-width="2px"/><text text-anchor="middle" pointer-events="none" font-family="sans-serif" dy="1.5625" font-size="25" fill="#FFFFFF"/><text text-anchor="middle" pointer-events="none" y="5" font-size="10px" fill="#FFFFFF" font-family="sans-serif"> Lupertazzi</text></g><g class="node" transform="translate(-141.54579662927316,187.86856344452286)"><circle class="outline" cx="0" cy="0" r="25" fill="#ECB5C9" stroke="#da7298" stroke-width="2px"/><text text-anchor="middle" pointer-events="none" font-family="sans-serif" dy="1.5625" font-size="25" fill="#604A0E"/><text text-anchor="middle" pointer-events="none" y="5" font-size="10px" fill="#604A0E" font-family="sans-serif"> Vito</text></g><g class="node" transform="translate(66.50684625041501,22.848830336164262)"><circle class="outline" cx="0" cy="0" r="25" fill="#ECB5C9" stroke="#da7298" stroke-width="2px"/><text text-anchor="middle" pointer-events="none" font-family="sans-serif" dy="1.5625" font-size="25" fill="#604A0E"/><text text-anchor="middle" pointer-events="none" y="5" font-size="10px" fill="#604A0E" font-family="sans-serif"> Matthew</text></g><g class="node" transform="translate(3.1452597809522174,276.0901285614541)"><circle class="outline" cx="0" cy="0" r="25" fill="#ECB5C9" stroke="#da7298" stroke-width="2px"/><text text-anchor="middle" pointer-events="none" font-family="sans-serif" dy="1.5625" font-size="25" fill="#604A0E"/><text text-anchor="middle" pointer-events="none" y="5" font-size="10px" fill="#604A0E" font-family="sans-serif"> Sean</text></g><g class="node" transform="translate(33.294698147425,190.36644546308372)"><circle class="outline" cx="0" cy="0" r="25" fill="#ECB5C9" stroke="#da7298" stroke-width="2px"/><text text-anchor="middle" pointer-events="none" font-family="sans-serif" dy="1.5625" font-size="25" fill="#604A0E"/><text text-anchor="middle" pointer-events="none" y="5" font-size="10px" fill="#604A0E" font-family="sans-serif"> Brendan</text></g><g class="node" transform="translate(-97.38680335522385,124.36119040799026)"><circle class="outline" cx="0" cy="0" r="25" fill="#ECB5C9" stroke="#da7298" stroke-width="2px"/><text text-anchor="middle" pointer-events="none" font-family="sans-serif" dy="1.5625" font-size="25" fill="#604A0E"/><text text-anchor="middle" pointer-events="none" y="5" font-size="10px" fill="#604A0E" font-family="sans-serif"> Burt</text></g><g class="node" transform="translate(12.440295359754675,-76.28679709514171)"><circle class="outline" cx="0" cy="0" r="25" fill="#ECB5C9" stroke="#da7298" stroke-width="2px"/><text text-anchor="middle" pointer-events="none" font-family="sans-serif" dy="1.5625" font-size="25" fill="#604A0E"/><text text-anchor="middle" pointer-events="none" y="5" font-size="10px" fill="#604A0E" font-family="sans-serif"> Michele</text></g><g class="node" transform="translate(105.90996414889439,265.66055947073795)"><circle class="outline" cx="0" cy="0" r="25" fill="#ECB5C9" stroke="#da7298" stroke-width="2px"/><text text-anchor="middle" pointer-events="none" font-family="sans-serif" dy="1.5625" font-size="25" fill="#604A0E"/><text text-anchor="middle" pointer-events="none" y="5" font-size="10px" fill="#604A0E" font-family="sans-serif"> Christop…</text></g><g class="node" transform="translate(125.01501738573305,10.24294466529815)"><circle class="outline" cx="0" cy="0" r="25" fill="#ECB5C9" stroke="#da7298" stroke-width="2px"/><text text-anchor="middle" pointer-events="none" font-family="sans-serif" dy="1.5625" font-size="25" fill="#604A0E"/><text text-anchor="middle" pointer-events="none" y="5" font-size="10px" fill="#604A0E" font-family="sans-serif"> Michael</text></g><g class="node" transform="translate(-58.194100984842436,-14.139048930367071)"><circle class="outline" cx="0" cy="0" r="25" fill="#ECB5C9" stroke="#da7298" stroke-width="2px"/><text text-anchor="middle" pointer-events="none" font-family="sans-serif" dy="1.5625" font-size="25" fill="#604A0E"/><text text-anchor="middle" pointer-events="none" y="5" font-size="10px" fill="#604A0E" font-family="sans-serif"> Robert</text></g><g class="node" transform="translate(228.3929908341453,-8.59139708337935)"><circle class="outline" cx="0" cy="0" r="25" fill="#ECB5C9" stroke="#da7298" stroke-width="2px"/><text text-anchor="middle" pointer-events="none" font-family="sans-serif" dy="1.5625" font-size="25" fill="#604A0E"/><text text-anchor="middle" pointer-events="none" y="5" font-size="10px" fill="#604A0E" font-family="sans-serif"> John</text></g><g class="node" transform="translate(183.62672205967812,284.71001223902823)"><circle class="outline" cx="0" cy="0" r="25" fill="#ECB5C9" stroke="#da7298" stroke-width="2px"/><text text-anchor="middle" pointer-events="none" font-family="sans-serif" dy="1.5625" font-size="25" fill="#604A0E"/><text text-anchor="middle" pointer-events="none" font-family="sans-serif" dy="1.5625" font-size="25" fill="#604A0E"/><text text-anchor="middle" pointer-events="none" y="0" font-size="10px" fill="#604A0E" font-family="sans-serif"> Giacomo</text><text text-anchor="middle" pointer-events="none" y="10" font-size="10px" fill="#604A0E" font-family="sans-serif"> Michael</text></g><g class="node" transform="translate(271.3162293177651,81.4256064305245)"><circle class="outline" cx="0" cy="0" r="25" fill="#ECB5C9" stroke="#da7298" stroke-width="2px"/><text text-anchor="middle" pointer-events="none" font-family="sans-serif" dy="1.5625" font-size="25" fill="#604A0E"/><text text-anchor="middle" pointer-events="none" y="5" font-size="10px" fill="#604A0E" font-family="sans-serif"> Ercole</text></g><g class="node" transform="translate(184.17750182425723,49.38286957214556)"><circle class="outline" cx="0" cy="0" r="25" fill="#ECB5C9" stroke="#da7298" stroke-width="2px"/><text text-anchor="middle" pointer-events="none" font-family="sans-serif" dy="1.5625" font-size="25" fill="#604A0E"/><text text-anchor="middle" pointer-events="none" y="5" font-size="10px" fill="#604A0E" font-family="sans-serif"> Salvatore</text></g><g class="node" transform="translate(180.79353248507834,-87.22239204638774)"><circle class="outline" cx="0" cy="0" r="25" fill="#ECB5C9" stroke="#da7298" stroke-width="2px"/><text text-anchor="middle" pointer-events="none" font-family="sans-serif" dy="1.5625" font-size="25" fill="#604A0E"/><text text-anchor="middle" pointer-events="none" y="5" font-size="10px" fill="#604A0E" font-family="sans-serif"> Paul</text></g><g class="node" transform="translate(280.66123325512615,161.00525301155446)"><circle class="outline" cx="0" cy="0" r="25" fill="#ECB5C9" stroke="#da7298" stroke-width="2px"/><text text-anchor="middle" pointer-events="none" font-family="sans-serif" dy="1.5625" font-size="25" fill="#604A0E"/><text text-anchor="middle" pointer-events="none" y="5" font-size="10px" fill="#604A0E" font-family="sans-serif"> Albert</text></g><g class="node" transform="translate(216.53748824209094,170.0303739757822)"><circle class="outline" cx="0" cy="0" r="25" fill="#ECB5C9" stroke="#da7298" stroke-width="2px"/><text text-anchor="middle" pointer-events="none" font-family="sans-serif" dy="1.5625" font-size="25" fill="#604A0E"/><text text-anchor="middle" pointer-events="none" y="5" font-size="10px" fill="#604A0E" font-family="sans-serif"> Silvio</text></g><g class="node" transform="translate(384.333371496019,286.09107969840295)"><circle class="outline" cx="0" cy="0" r="25" fill="#A5ABB6" stroke="#9AA1AC" stroke-width="2px"/><text text-anchor="middle" pointer-events="none" font-family="sans-serif" dy="1.5625" font-size="25" fill="#FFFFFF"/><text text-anchor="middle" pointer-events="none" y="5" font-size="10px" fill="#FFFFFF" font-family="sans-serif"> AT_LAR…</text></g><g class="node" transform="translate(402.2003159633112,211.16047347956183)"><circle class="outline" cx="0" cy="0" r="25" fill="#569480" stroke="#447666" stroke-width="2px"/><text text-anchor="middle" pointer-events="none" font-family="sans-serif" dy="1.5625" font-size="25" fill="#FFFFFF"/><text text-anchor="middle" pointer-events="none" y="5" font-size="10px" fill="#FFFFFF" font-family="sans-serif"> CONSI…</text></g><g class="node" transform="translate(488.002950183717,243.12755100153842)"><circle class="outline" cx="0" cy="0" r="25" fill="#A5ABB6" stroke="#9AA1AC" stroke-width="2px"/><text text-anchor="middle" pointer-events="none" font-family="sans-serif" dy="1.5625" font-size="25" fill="#FFFFFF"/><text text-anchor="middle" pointer-events="none" y="5" font-size="10px" fill="#FFFFFF" font-family="sans-serif"> IN_PRIS…</text></g><g class="node" transform="translate(495.53198254225566,172.2134538227269)"><circle class="outline" cx="0" cy="0" r="25" fill="#569480" stroke="#447666" stroke-width="2px"/><text text-anchor="middle" pointer-events="none" font-family="sans-serif" dy="1.5625" font-size="25" fill="#FFFFFF"/><text text-anchor="middle" pointer-events="none" y="5" font-size="10px" fill="#FFFFFF" font-family="sans-serif"> CAPOR…</text></g><g class="node" transform="translate(290.10765204101347,-219.29212532599973)"><circle class="outline" cx="0" cy="0" r="25" fill="#A5ABB6" stroke="#9AA1AC" stroke-width="2px"/><text text-anchor="middle" pointer-events="none" font-family="sans-serif" dy="1.5625" font-size="25" fill="#FFFFFF"/><text text-anchor="middle" pointer-events="none" y="5" font-size="10px" fill="#FFFFFF" font-family="sans-serif"> AT_LAR…</text></g><g class="node" transform="translate(212.3163037121788,-260.7965398657277)"><circle class="outline" cx="0" cy="0" r="25" fill="#569480" stroke="#447666" stroke-width="2px"/><text text-anchor="middle" pointer-events="none" font-family="sans-serif" dy="1.5625" font-size="25" fill="#FFFFFF"/><text text-anchor="middle" pointer-events="none" y="5" font-size="10px" fill="#FFFFFF" font-family="sans-serif"> CAPOR…</text></g><g class="node" transform="translate(327.73187074605227,-311.5590775586063)"><circle class="outline" cx="0" cy="0" r="25" fill="#ECB5C9" stroke="#da7298" stroke-width="2px"/><text text-anchor="middle" pointer-events="none" font-family="sans-serif" dy="1.5625" font-size="25" fill="#604A0E"/><text text-anchor="middle" pointer-events="none" y="5" font-size="10px" fill="#604A0E" font-family="sans-serif"> Mario</text></g><g class="node" transform="translate(361.08376377994165,42.719647589304735)"><circle class="outline" cx="0" cy="0" r="25" fill="#A5ABB6" stroke="#9AA1AC" stroke-width="2px"/><text text-anchor="middle" pointer-events="none" font-family="sans-serif" dy="1.5625" font-size="25" fill="#FFFFFF"/><text text-anchor="middle" pointer-events="none" y="5" font-size="10px" fill="#FFFFFF" font-family="sans-serif"> DEAD</text></g><g class="node" transform="translate(341.2436146438788,-24.523475715856243)"><circle class="outline" cx="0" cy="0" r="25" fill="#569480" stroke="#447666" stroke-width="2px"/><text text-anchor="middle" pointer-events="none" font-family="sans-serif" dy="1.5625" font-size="25" fill="#FFFFFF"/><text text-anchor="middle" pointer-events="none" y="5" font-size="10px" fill="#FFFFFF" font-family="sans-serif"> SOLDIER</text></g><g class="node" transform="translate(479.8887916212112,80.36664816083601)"><circle class="outline" cx="0" cy="0" r="25" fill="#A5ABB6" stroke="#9AA1AC" stroke-width="2px"/><text text-anchor="middle" pointer-events="none" font-family="sans-serif" dy="1.5625" font-size="25" fill="#FFFFFF"/><text text-anchor="middle" pointer-events="none" y="5" font-size="10px" fill="#FFFFFF" font-family="sans-serif"> IN_PRIS…</text></g><g class="node" transform="translate(474.68940736905563,19.09743261477036)"><circle class="outline" cx="0" cy="0" r="25" fill="#569480" stroke="#447666" stroke-width="2px"/><text text-anchor="middle" pointer-events="none" font-family="sans-serif" dy="1.5625" font-size="25" fill="#FFFFFF"/><text text-anchor="middle" pointer-events="none" y="5" font-size="10px" fill="#FFFFFF" font-family="sans-serif"> FOUND…</text></g><g class="node" transform="translate(304.6904016248665,448.17017043520366)"><circle class="outline" cx="0" cy="0" r="25" fill="#A5ABB6" stroke="#9AA1AC" stroke-width="2px"/><text text-anchor="middle" pointer-events="none" font-family="sans-serif" dy="1.5625" font-size="25" fill="#FFFFFF"/><text text-anchor="middle" pointer-events="none" y="5" font-size="10px" fill="#FFFFFF" font-family="sans-serif"> DEAD</text></g><g class="node" transform="translate(353.9674149943177,405.0094094338963)"><circle class="outline" cx="0" cy="0" r="25" fill="#569480" stroke="#447666" stroke-width="2px"/><text text-anchor="middle" pointer-events="none" font-family="sans-serif" dy="1.5625" font-size="25" fill="#FFFFFF"/><text text-anchor="middle" pointer-events="none" y="5" font-size="10px" fill="#FFFFFF" font-family="sans-serif"> BOSS</text></g><g class="node" transform="translate(424.6028688199795,-83.13854428725816)"><circle class="outline" cx="0" cy="0" r="25" fill="#A5ABB6" stroke="#9AA1AC" stroke-width="2px"/><text text-anchor="middle" pointer-events="none" font-family="sans-serif" dy="1.5625" font-size="25" fill="#FFFFFF"/><text text-anchor="middle" pointer-events="none" y="5" font-size="10px" fill="#FFFFFF" font-family="sans-serif"> AT_LAR…</text></g><g class="node" transform="translate(379.1121501690016,-132.8266835786297)"><circle class="outline" cx="0" cy="0" r="25" fill="#569480" stroke="#447666" stroke-width="2px"/><text text-anchor="middle" pointer-events="none" font-family="sans-serif" dy="1.5625" font-size="25" fill="#FFFFFF"/><text text-anchor="middle" pointer-events="none" y="5" font-size="10px" fill="#FFFFFF" font-family="sans-serif"> BOSS</text></g><g class="node" transform="translate(-148.43240249679798,-129.0440302608592)"><circle class="outline" cx="0" cy="0" r="25" fill="#A5ABB6" stroke="#9AA1AC" stroke-width="2px"/><text text-anchor="middle" pointer-events="none" font-family="sans-serif" dy="1.5625" font-size="25" fill="#FFFFFF"/><text text-anchor="middle" pointer-events="none" y="5" font-size="10px" fill="#FFFFFF" font-family="sans-serif"> DEAD</text></g><g class="node" transform="translate(-91.00170359224958,-175.07399004131662)"><circle class="outline" cx="0" cy="0" r="25" fill="#569480" stroke="#447666" stroke-width="2px"/><text text-anchor="middle" pointer-events="none" font-family="sans-serif" dy="1.5625" font-size="25" fill="#FFFFFF"/><text text-anchor="middle" pointer-events="none" y="5" font-size="10px" fill="#FFFFFF" font-family="sans-serif"> UNDER…</text></g><g class="node" transform="translate(156.99635722470782,-160.62661353976586)"><circle class="outline" cx="0" cy="0" r="25" fill="#A5ABB6" stroke="#9AA1AC" stroke-width="2px"/><text text-anchor="middle" pointer-events="none" font-family="sans-serif" dy="1.5625" font-size="25" fill="#FFFFFF"/><text text-anchor="middle" pointer-events="none" y="5" font-size="10px" fill="#FFFFFF" font-family="sans-serif"> DEAD</text></g><g class="node" transform="translate(249.02390213256155,-113.51345572247155)"><circle class="outline" cx="0" cy="0" r="25" fill="#569480" stroke="#447666" stroke-width="2px"/><text text-anchor="middle" pointer-events="none" font-family="sans-serif" dy="1.5625" font-size="25" fill="#FFFFFF"/><text text-anchor="middle" pointer-events="none" y="5" font-size="10px" fill="#FFFFFF" font-family="sans-serif"> CONSI…</text></g><g class="node" transform="translate(157.46003476437187,431.6519672551772)"><circle class="outline" cx="0" cy="0" r="25" fill="#A5ABB6" stroke="#9AA1AC" stroke-width="2px"/><text text-anchor="middle" pointer-events="none" font-family="sans-serif" dy="1.5625" font-size="25" fill="#FFFFFF"/><text text-anchor="middle" pointer-events="none" y="5" font-size="10px" fill="#FFFFFF" font-family="sans-serif"> DEAD</text></g><g class="node" transform="translate(213.89089699434857,403.189901033414)"><circle class="outline" cx="0" cy="0" r="25" fill="#569480" stroke="#447666" stroke-width="2px"/><text text-anchor="middle" pointer-events="none" font-family="sans-serif" dy="1.5625" font-size="25" fill="#FFFFFF"/><text text-anchor="middle" pointer-events="none" y="5" font-size="10px" fill="#FFFFFF" font-family="sans-serif"> CAPOR…</text></g><g class="node" transform="translate(44.576269030230556,-264.48024699060795)"><circle class="outline" cx="0" cy="0" r="25" fill="#A5ABB6" stroke="#9AA1AC" stroke-width="2px"/><text text-anchor="middle" pointer-events="none" font-family="sans-serif" dy="1.5625" font-size="25" fill="#FFFFFF"/><text text-anchor="middle" pointer-events="none" y="5" font-size="10px" fill="#FFFFFF" font-family="sans-serif"> AT_LAR…</text></g><g class="node" transform="translate(-19.501871608250152,-257.86921447183636)"><circle class="outline" cx="0" cy="0" r="25" fill="#569480" stroke="#447666" stroke-width="2px"/><text text-anchor="middle" pointer-events="none" font-family="sans-serif" dy="1.5625" font-size="25" fill="#FFFFFF"/><text text-anchor="middle" pointer-events="none" y="5" font-size="10px" fill="#FFFFFF" font-family="sans-serif"> CAPOR…</text></g><g class="node" transform="translate(-219.95370042641906,217.68699895078308)"><circle class="outline" cx="0" cy="0" r="25" fill="#A5ABB6" stroke="#9AA1AC" stroke-width="2px"/><text text-anchor="middle" pointer-events="none" font-family="sans-serif" dy="1.5625" font-size="25" fill="#FFFFFF"/><text text-anchor="middle" pointer-events="none" y="5" font-size="10px" fill="#FFFFFF" font-family="sans-serif"> DEAD</text></g><g class="node" transform="translate(-231.35594715641474,108.58699690569021)"><circle class="outline" cx="0" cy="0" r="25" fill="#569480" stroke="#447666" stroke-width="2px"/><text text-anchor="middle" pointer-events="none" font-family="sans-serif" dy="1.5625" font-size="25" fill="#FFFFFF"/><text text-anchor="middle" pointer-events="none" y="5" font-size="10px" fill="#FFFFFF" font-family="sans-serif"> SOLDIER</text></g><g class="node" transform="translate(-70.40467724886327,310.8290532250257)"><circle class="outline" cx="0" cy="0" r="25" fill="#A5ABB6" stroke="#9AA1AC" stroke-width="2px"/><text text-anchor="middle" pointer-events="none" font-family="sans-serif" dy="1.5625" font-size="25" fill="#FFFFFF"/><text text-anchor="middle" pointer-events="none" y="5" font-size="10px" fill="#FFFFFF" font-family="sans-serif"> DEAD</text></g><g class="node" transform="translate(37.00524618298662,345.750813591949)"><circle class="outline" cx="0" cy="0" r="25" fill="#569480" stroke="#447666" stroke-width="2px"/><text text-anchor="middle" pointer-events="none" font-family="sans-serif" dy="1.5625" font-size="25" fill="#FFFFFF"/><text text-anchor="middle" pointer-events="none" y="5" font-size="10px" fill="#FFFFFF" font-family="sans-serif"> ASSOCI…</text></g><g class="node" transform="translate(-90.73171402275717,424.1457928204668)"><circle class="outline" cx="0" cy="0" r="25" fill="#A5ABB6" stroke="#9AA1AC" stroke-width="2px"/><text text-anchor="middle" pointer-events="none" font-family="sans-serif" dy="1.5625" font-size="25" fill="#FFFFFF"/><text text-anchor="middle" pointer-events="none" y="5" font-size="10px" fill="#FFFFFF" font-family="sans-serif"> DEAD</text></g><g class="node" transform="translate(61.991629610340766,455.6067023458887)"><circle class="outline" cx="0" cy="0" r="25" fill="#569480" stroke="#447666" stroke-width="2px"/><text text-anchor="middle" pointer-events="none" font-family="sans-serif" dy="1.5625" font-size="25" fill="#FFFFFF"/><text text-anchor="middle" pointer-events="none" y="5" font-size="10px" fill="#FFFFFF" font-family="sans-serif"> ASSOCI…</text></g><g class="node" transform="translate(114.48086994932531,105.2801402733275)"><circle class="outline" cx="0" cy="0" r="25" fill="#A5ABB6" stroke="#9AA1AC" stroke-width="2px"/><text text-anchor="middle" pointer-events="none" font-family="sans-serif" dy="1.5625" font-size="25" fill="#FFFFFF"/><text text-anchor="middle" pointer-events="none" y="5" font-size="10px" fill="#FFFFFF" font-family="sans-serif"> DEAD</text></g><g class="node" transform="translate(62.13350942941383,-137.60928561951204)"><circle class="outline" cx="0" cy="0" r="25" fill="#569480" stroke="#447666" stroke-width="2px"/><text text-anchor="middle" pointer-events="none" font-family="sans-serif" dy="1.5625" font-size="25" fill="#FFFFFF"/><text text-anchor="middle" pointer-events="none" y="5" font-size="10px" fill="#FFFFFF" font-family="sans-serif"> ASSOCI…</text></g><g class="node" transform="translate(-274.17980894459555,299.3374047061299)"><circle class="outline" cx="0" cy="0" r="25" fill="#A5ABB6" stroke="#9AA1AC" stroke-width="2px"/><text text-anchor="middle" pointer-events="none" font-family="sans-serif" dy="1.5625" font-size="25" fill="#FFFFFF"/><text text-anchor="middle" pointer-events="none" y="5" font-size="10px" fill="#FFFFFF" font-family="sans-serif"> DEAD</text></g><g class="node" transform="translate(-224.67879202377873,341.2428255612433)"><circle class="outline" cx="0" cy="0" r="25" fill="#569480" stroke="#447666" stroke-width="2px"/><text text-anchor="middle" pointer-events="none" font-family="sans-serif" dy="1.5625" font-size="25" fill="#FFFFFF"/><text text-anchor="middle" pointer-events="none" y="5" font-size="10px" fill="#FFFFFF" font-family="sans-serif"> UNDER…</text></g><g class="node" transform="translate(380.94627022430745,-621.8486911676054)"><circle class="outline" cx="0" cy="0" r="25" fill="#ECB5C9" stroke="#da7298" stroke-width="2px"/><text text-anchor="middle" pointer-events="none" font-family="sans-serif" dy="1.5625" font-size="25" fill="#604A0E"/><text text-anchor="middle" pointer-events="none" y="5" font-size="10px" fill="#604A0E" font-family="sans-serif"> Angelo</text></g><g class="node" transform="translate(480.4647052200138,-673.0449761155523)"><circle class="outline" cx="0" cy="0" r="25" fill="#A5ABB6" stroke="#9AA1AC" stroke-width="2px"/><text text-anchor="middle" pointer-events="none" font-family="sans-serif" dy="1.5625" font-size="25" fill="#FFFFFF"/><text text-anchor="middle" pointer-events="none" y="5" font-size="10px" fill="#FFFFFF" font-family="sans-serif"> AT_LAR…</text></g><g class="node" transform="translate(298.6914128419159,-704.0350073111971)"><circle class="outline" cx="0" cy="0" r="25" fill="#569480" stroke="#447666" stroke-width="2px"/><text text-anchor="middle" pointer-events="none" font-family="sans-serif" dy="1.5625" font-size="25" fill="#FFFFFF"/><text text-anchor="middle" pointer-events="none" y="5" font-size="10px" fill="#FFFFFF" font-family="sans-serif"> FOUND…</text></g><g class="node" transform="translate(362.9938740351026,-486.2710680919523)"><circle class="outline" cx="0" cy="0" r="25" fill="#4C8EDA" stroke="#2870c2" stroke-width="2px"/><text text-anchor="middle" pointer-events="none" font-family="sans-serif" dy="1.5625" font-size="25" fill="#FFFFFF"/><text text-anchor="middle" pointer-events="none" y="5" font-size="10px" fill="#FFFFFF" font-family="sans-serif"> Buscetta</text></g><g class="node" transform="translate(479.4686535666194,-356.4892002796241)"><circle class="outline" cx="0" cy="0" r="25" fill="#A5ABB6" stroke="#9AA1AC" stroke-width="2px"/><text text-anchor="middle" pointer-events="none" font-family="sans-serif" dy="1.5625" font-size="25" fill="#FFFFFF"/><text text-anchor="middle" pointer-events="none" y="5" font-size="10px" fill="#FFFFFF" font-family="sans-serif"> DEAD</text></g><g class="node" transform="translate(431.1682255901774,-415.18611927484994)"><circle class="outline" cx="0" cy="0" r="25" fill="#569480" stroke="#447666" stroke-width="2px"/><text text-anchor="middle" pointer-events="none" font-family="sans-serif" dy="1.5625" font-size="25" fill="#FFFFFF"/><text text-anchor="middle" pointer-events="none" y="5" font-size="10px" fill="#FFFFFF" font-family="sans-serif"> UNDER…</text></g><g class="node" transform="translate(-323.9021794643297,-169.3432981746255)"><circle class="outline" cx="0" cy="0" r="25" fill="#ECB5C9" stroke="#da7298" stroke-width="2px"/><text text-anchor="middle" pointer-events="none" font-family="sans-serif" dy="1.5625" font-size="25" fill="#604A0E"/><text text-anchor="middle" pointer-events="none" y="5" font-size="10px" fill="#604A0E" font-family="sans-serif"> Carmine</text></g><g class="node" transform="translate(-371.1419670028834,-323.85378275648515)"><circle class="outline" cx="0" cy="0" r="25" fill="#A5ABB6" stroke="#9AA1AC" stroke-width="2px"/><text text-anchor="middle" pointer-events="none" font-family="sans-serif" dy="1.5625" font-size="25" fill="#FFFFFF"/><text text-anchor="middle" pointer-events="none" y="5" font-size="10px" fill="#FFFFFF" font-family="sans-serif"> DEAD</text></g><g class="node" transform="translate(-430.1147707649802,-293.889727203755)"><circle class="outline" cx="0" cy="0" r="25" fill="#569480" stroke="#447666" stroke-width="2px"/><text text-anchor="middle" pointer-events="none" font-family="sans-serif" dy="1.5625" font-size="25" fill="#FFFFFF"/><text text-anchor="middle" pointer-events="none" y="5" font-size="10px" fill="#FFFFFF" font-family="sans-serif"> FOUND…</text></g><g class="node" transform="translate(-375.4647086697813,-103.10369907909198)"><circle class="outline" cx="0" cy="0" r="25" fill="#ECB5C9" stroke="#da7298" stroke-width="2px"/><text text-anchor="middle" pointer-events="none" font-family="sans-serif" dy="1.5625" font-size="25" fill="#604A0E"/><text text-anchor="middle" pointer-events="none" y="5" font-size="10px" fill="#604A0E" font-family="sans-serif"> Rusty</text></g><g class="node" transform="translate(-408.7840182521371,63.23791036537785)"><circle class="outline" cx="0" cy="0" r="25" fill="#ECB5C9" stroke="#da7298" stroke-width="2px"/><text text-anchor="middle" pointer-events="none" font-family="sans-serif" dy="1.5625" font-size="25" fill="#604A0E"/><text text-anchor="middle" pointer-events="none" y="5" font-size="10px" fill="#604A0E" font-family="sans-serif"> Butch</text></g><g class="node" transform="translate(-310.45986076487395,143.77495596787313)"><circle class="outline" cx="0" cy="0" r="25" fill="#ECB5C9" stroke="#da7298" stroke-width="2px"/><text text-anchor="middle" pointer-events="none" font-family="sans-serif" dy="1.5625" font-size="25" fill="#604A0E"/><text text-anchor="middle" pointer-events="none" y="5" font-size="10px" fill="#604A0E" font-family="sans-serif"> Phil</text></g><g class="node" transform="translate(-249.59469531541978,-208.91803504612867)"><circle class="outline" cx="0" cy="0" r="25" fill="#ECB5C9" stroke="#da7298" stroke-width="2px"/><text text-anchor="middle" pointer-events="none" font-family="sans-serif" dy="1.5625" font-size="25" fill="#604A0E"/><text text-anchor="middle" pointer-events="none" y="5" font-size="10px" fill="#604A0E" font-family="sans-serif"> John</text></g><g class="node" transform="translate(-410.5319343106552,-25.174288552788568)"><circle class="outline" cx="0" cy="0" r="25" fill="#ECB5C9" stroke="#da7298" stroke-width="2px"/><text text-anchor="middle" pointer-events="none" font-family="sans-serif" dy="1.5625" font-size="25" fill="#604A0E"/><text text-anchor="middle" pointer-events="none" y="5" font-size="10px" fill="#604A0E" font-family="sans-serif"> Angelo</text></g><g class="node" transform="translate(-559.7430715173864,-75.5477570972037)"><circle class="outline" cx="0" cy="0" r="25" fill="#A5ABB6" stroke="#9AA1AC" stroke-width="2px"/><text text-anchor="middle" pointer-events="none" font-family="sans-serif" dy="1.5625" font-size="25" fill="#FFFFFF"/><text text-anchor="middle" pointer-events="none" y="5" font-size="10px" fill="#FFFFFF" font-family="sans-serif"> AT_LAR…</text></g><g class="node" transform="translate(-566.3565945253021,-6.487097761225916)"><circle class="outline" cx="0" cy="0" r="25" fill="#569480" stroke="#447666" stroke-width="2px"/><text text-anchor="middle" pointer-events="none" font-family="sans-serif" dy="1.5625" font-size="25" fill="#FFFFFF"/><text text-anchor="middle" pointer-events="none" y="5" font-size="10px" fill="#FFFFFF" font-family="sans-serif"> CAPOR…</text></g><g class="node" transform="translate(-220.0006835606469,-373.9320586014309)"><circle class="outline" cx="0" cy="0" r="25" fill="#A5ABB6" stroke="#9AA1AC" stroke-width="2px"/><text text-anchor="middle" pointer-events="none" font-family="sans-serif" dy="1.5625" font-size="25" fill="#FFFFFF"/><text text-anchor="middle" pointer-events="none" y="5" font-size="10px" fill="#FFFFFF" font-family="sans-serif"> DEAD</text></g><g class="node" transform="translate(-288.4439543735309,-372.5404157659546)"><circle class="outline" cx="0" cy="0" r="25" fill="#569480" stroke="#447666" stroke-width="2px"/><text text-anchor="middle" pointer-events="none" font-family="sans-serif" dy="1.5625" font-size="25" fill="#FFFFFF"/><text text-anchor="middle" pointer-events="none" y="5" font-size="10px" fill="#FFFFFF" font-family="sans-serif"> UNDER…</text></g><g class="node" transform="translate(-447.4835246439103,223.9799297094119)"><circle class="outline" cx="0" cy="0" r="25" fill="#A5ABB6" stroke="#9AA1AC" stroke-width="2px"/><text text-anchor="middle" pointer-events="none" font-family="sans-serif" dy="1.5625" font-size="25" fill="#FFFFFF"/><text text-anchor="middle" pointer-events="none" y="5" font-size="10px" fill="#FFFFFF" font-family="sans-serif"> AT_LAR…</text></g><g class="node" transform="translate(-413.20237791105995,279.20724778506576)"><circle class="outline" cx="0" cy="0" r="25" fill="#569480" stroke="#447666" stroke-width="2px"/><text text-anchor="middle" pointer-events="none" font-family="sans-serif" dy="1.5625" font-size="25" fill="#FFFFFF"/><text text-anchor="middle" pointer-events="none" y="5" font-size="10px" fill="#FFFFFF" font-family="sans-serif"> UNDER…</text></g><g class="node" transform="translate(-565.7132875199849,96.4516348324053)"><circle class="outline" cx="0" cy="0" r="25" fill="#A5ABB6" stroke="#9AA1AC" stroke-width="2px"/><text text-anchor="middle" pointer-events="none" font-family="sans-serif" dy="1.5625" font-size="25" fill="#FFFFFF"/><text text-anchor="middle" pointer-events="none" y="5" font-size="10px" fill="#FFFFFF" font-family="sans-serif"> AT_LAR…</text></g><g class="node" transform="translate(-542.0705403266718,160.7376193137755)"><circle class="outline" cx="0" cy="0" r="25" fill="#569480" stroke="#447666" stroke-width="2px"/><text text-anchor="middle" pointer-events="none" font-family="sans-serif" dy="1.5625" font-size="25" fill="#FFFFFF"/><text text-anchor="middle" pointer-events="none" y="5" font-size="10px" fill="#FFFFFF" font-family="sans-serif"> SOLDIER</text></g><g class="node" transform="translate(-481.17175941897915,-216.09903580318883)"><circle class="outline" cx="0" cy="0" r="25" fill="#A5ABB6" stroke="#9AA1AC" stroke-width="2px"/><text text-anchor="middle" pointer-events="none" font-family="sans-serif" dy="1.5625" font-size="25" fill="#FFFFFF"/><text text-anchor="middle" pointer-events="none" y="5" font-size="10px" fill="#FFFFFF" font-family="sans-serif"> AT_LAR…</text></g><g class="node" transform="translate(-519.1512217136276,-163.20962322523943)"><circle class="outline" cx="0" cy="0" r="25" fill="#569480" stroke="#447666" stroke-width="2px"/><text text-anchor="middle" pointer-events="none" font-family="sans-serif" dy="1.5625" font-size="25" fill="#FFFFFF"/><text text-anchor="middle" pointer-events="none" y="5" font-size="10px" fill="#FFFFFF" font-family="sans-serif"> SOLDIER</text></g><g class="node" transform="translate(-105.15307526068439,603.6715524594249)"><circle class="outline" cx="0" cy="0" r="25" fill="#ECB5C9" stroke="#da7298" stroke-width="2px"/><text text-anchor="middle" pointer-events="none" font-family="sans-serif" dy="1.5625" font-size="25" fill="#604A0E"/><text text-anchor="middle" pointer-events="none" y="5" font-size="10px" fill="#604A0E" font-family="sans-serif"> Annalisa</text></g><g class="node" transform="translate(-221.40776170041696,691.2751017556468)"><circle class="outline" cx="0" cy="0" r="25" fill="#A5ABB6" stroke="#9AA1AC" stroke-width="2px"/><text text-anchor="middle" pointer-events="none" font-family="sans-serif" dy="1.5625" font-size="25" fill="#FFFFFF"/><text text-anchor="middle" pointer-events="none" y="5" font-size="10px" fill="#FFFFFF" font-family="sans-serif"> AT_LAR…</text></g><g class="node" transform="translate(-153.9867485366173,741.1788212257788)"><circle class="outline" cx="0" cy="0" r="25" fill="#569480" stroke="#447666" stroke-width="2px"/><text text-anchor="middle" pointer-events="none" font-family="sans-serif" dy="1.5625" font-size="25" fill="#FFFFFF"/><text text-anchor="middle" pointer-events="none" y="5" font-size="10px" fill="#FFFFFF" font-family="sans-serif"> BOSS</text></g><g class="node" transform="translate(16.31075361698293,640.2201427397737)"><circle class="outline" cx="0" cy="0" r="25" fill="#ECB5C9" stroke="#da7298" stroke-width="2px"/><text text-anchor="middle" pointer-events="none" font-family="sans-serif" dy="1.5625" font-size="25" fill="#604A0E"/><text text-anchor="middle" pointer-events="none" y="5" font-size="10px" fill="#604A0E" font-family="sans-serif"> Camilio</text></g><g class="node" transform="translate(138.79748936984555,621.0806033655447)"><circle class="outline" cx="0" cy="0" r="25" fill="#ECB5C9" stroke="#da7298" stroke-width="2px"/><text text-anchor="middle" pointer-events="none" font-family="sans-serif" dy="1.5625" font-size="25" fill="#604A0E"/><text text-anchor="middle" pointer-events="none" y="5" font-size="10px" fill="#604A0E" font-family="sans-serif"> Nino</text></g><g class="node" transform="translate(212.79006624686613,757.3674579577726)"><circle class="outline" cx="0" cy="0" r="25" fill="#A5ABB6" stroke="#9AA1AC" stroke-width="2px"/><text text-anchor="middle" pointer-events="none" font-family="sans-serif" dy="1.5625" font-size="25" fill="#FFFFFF"/><text text-anchor="middle" pointer-events="none" y="5" font-size="10px" fill="#FFFFFF" font-family="sans-serif"> AT_LAR…</text></g><g class="node" transform="translate(273.4407376431099,708.748946255546)"><circle class="outline" cx="0" cy="0" r="25" fill="#569480" stroke="#447666" stroke-width="2px"/><text text-anchor="middle" pointer-events="none" font-family="sans-serif" dy="1.5625" font-size="25" fill="#FFFFFF"/><text text-anchor="middle" pointer-events="none" y="5" font-size="10px" fill="#FFFFFF" font-family="sans-serif"> UNDER…</text></g><g class="node" transform="translate(-8.593698257550022,785.407204153847)"><circle class="outline" cx="0" cy="0" r="25" fill="#A5ABB6" stroke="#9AA1AC" stroke-width="2px"/><text text-anchor="middle" pointer-events="none" font-family="sans-serif" dy="1.5625" font-size="25" fill="#FFFFFF"/><text text-anchor="middle" pointer-events="none" y="5" font-size="10px" fill="#FFFFFF" font-family="sans-serif"> AT_LAR…</text></g><g class="node" transform="translate(71.5663554343996,780.3038114248251)"><circle class="outline" cx="0" cy="0" r="25" fill="#569480" stroke="#447666" stroke-width="2px"/><text text-anchor="middle" pointer-events="none" font-family="sans-serif" dy="1.5625" font-size="25" fill="#FFFFFF"/><text text-anchor="middle" pointer-events="none" y="5" font-size="10px" fill="#FFFFFF" font-family="sans-serif"> CAPOR…</text></g></g></svg>